<svg width="200px" height="40px" xmlns="http://www.w3.org/2000/svg" xmlns:xlink="http://www.w3.org/1999/xlink"><defs><path d="M1.2405585 36.8586756L.00144019 3.84178492c-.04092322-1.09041839.79517056-2.01453526 1.8842316-2.08260158L29.9688501.0039847c1.1085341-.06928338 2.0633439.77319581 2.1326273 1.88172995a2.01111864 2.01111864 0 0 1 .0039164.12544867V37.9889049C32.1053938 39.0996021 31.2049959 40 30.0942987 40a2.01116305 2.01116305 0 0 1-.0902337-.0020253L3.16000504 38.7923224c-1.04546998-.0469554-1.8801983-.8878591-1.91944654-1.9336468z" id="a"/></defs><g fill="none" fill-rule="evenodd"><path d="M53.28 31.663c-1.7066752 0-3.3493254-.229331-4.928-.688-1.5786746-.458669-2.8906614-1.0933293-3.936-1.904l1.6-3.552c2.1760109 1.5146742 4.6186531 2.272 7.328 2.272 1.408007 0 2.4906629-.229331 3.248-.688.7573371-.458669 1.136-1.0933293 1.136-1.904 0-.725337-.3466632-1.2906646-1.04-1.696s-1.9253245-.7999981-3.696-1.184c-1.9840099-.4053354-3.5679941-.8959971-4.752-1.472-1.1840059-.5760029-2.0479973-1.2853291-2.592-2.128-.5440027-.8426709-.816-1.8826605-.816-3.12 0-1.3653402.3786629-2.581328 1.136-3.648.7573371-1.066672 1.8186598-1.903997 3.184-2.512 1.3653402-.60800304 2.943991-.912 4.736-.912 1.600008 0 3.1413259.23466432 4.624.704 1.4826741.46933568 2.661329 1.0986627 3.536 1.888l-1.6 3.552c-2.0693437-1.5146742-4.2453219-2.272-6.528-2.272-1.3013398 0-2.3253296.2506642-3.072.752-.7466704.5013358-1.12 1.189329-1.12 2.064 0 .5120026.1439986.9333317.432 1.264.2880014.3306683.7679966.6239987 1.44.88.6720034.2560013 1.6266605.5226653 2.864.8 2.9013478.6400032 4.9866603 1.4613283 6.256 2.464 1.2693397 1.0026717 1.904 2.3893245 1.904 4.16 0 2.133344-.8213251 3.8133272-2.464 5.04-1.6426749 1.2266728-3.9359853 1.84-6.88 1.84zm20.928-3.584c.4906691 0 1.002664-.0319997 1.536-.096l-.256 3.52c-.6186698.0853338-1.2373302.128-1.856.128-2.3893453 0-4.1333278-.5226614-5.232-1.568-1.0986722-1.0453386-1.648-2.634656-1.648-4.768v-6.016h-2.976v-3.616h2.976v-4.608h4.832v4.608h3.936v3.616h-3.936v5.984c0 1.8773427.8746579 2.816 2.624 2.816zm11.232 3.552c-1.6640083 0-3.125327-.3359966-4.384-1.008-1.258673-.6720034-2.2293299-1.6213272-2.912-2.848-.6826701-1.2266728-1.024-2.6719917-1.024-4.336 0-1.6640083.3413299-3.1093272 1.024-4.336.6826701-1.2266728 1.653327-2.1706634 2.912-2.832 1.258673-.6613366 2.7199917-.992 4.384-.992 1.6640083 0 3.125327.3306634 4.384.992 1.258673.6613366 2.2293299 1.6053272 2.912 2.832.6826701 1.2266728 1.024 2.6719917 1.024 4.336 0 1.6640083-.3413299 3.1093272-1.024 4.336-.6826701 1.2266728-1.653327 2.1759966-2.912 2.848-1.258673.6720034-2.7199917 1.008-4.384 1.008zm0-3.68c2.3466784 0 3.52-1.503985 3.52-4.512 0-1.5146742-.303997-2.6453296-.912-3.392-.608003-.7466704-1.4773277-1.12-2.608-1.12-2.3466784 0-3.52 1.503985-3.52 4.512 0 3.008015 1.1733216 4.512 3.52 4.512zm21.696-8.704l-2.72.288c-1.344007.1280006-2.293331.5066635-2.848 1.136-.554669.6293365-.832 1.4666614-.832 2.512v8.192h-4.832V15.663h4.64v2.656c.789337-1.8133424 2.421321-2.8053325 4.896-2.976l1.408-.096.288 4zm14.04-3.552h4.736l-9.472 21.44h-4.896l3.008-6.624-6.464-14.816h5.024l3.968 9.984 4.096-9.984zm15.936-.416c1.36534 0 2.570661.3306634 3.616.992 1.045339.6613366 1.86133 1.6053272 2.448 2.832.58667 1.2266728.88 2.6506586.88 4.272 0 1.6213414-.29333 3.0559938-.88 4.304-.58667 1.2480062-1.407995 2.2186632-2.464 2.912-1.056005.6933368-2.255993 1.04-3.6 1.04-1.088005 0-2.069329-.229331-2.944-.688-.874671-.458669-1.546664-1.0933293-2.016-1.904v2.336h-4.768V8.815h4.832v8.96c.469336-.7893373 1.135996-1.4026645 2-1.84.864004-.4373355 1.829328-.656 2.896-.656zm-1.408 12.672c1.130672 0 2.00533-.399996 2.624-1.2.61867-.800004.928-1.9253261.928-3.376 0-1.4293405-.30933-2.5226629-.928-3.28s-1.493328-1.136-2.624-1.136c-1.130672 0-2.00533.3893294-2.624 1.168-.61867.7786706-.928 1.8826595-.928 3.312 0 1.4506739.30933 2.5653294.928 3.344.61867.7786706 1.493328 1.168 2.624 1.168zm18.848 3.68c-1.664008 0-3.125327-.3359966-4.384-1.008-1.258673-.6720034-2.22933-1.6213272-2.912-2.848-.68267-1.2266728-1.024-2.6719917-1.024-4.336 0-1.6640083.34133-3.1093272 1.024-4.336.68267-1.2266728 1.653327-2.1706634 2.912-2.832 1.258673-.6613366 2.719992-.992 4.384-.992 1.664008 0 3.125327.3306634 4.384.992 1.258673.6613366 2.22933 1.6053272 2.912 2.832.68267 1.2266728 1.024 2.6719917 1.024 4.336 0 1.6640083-.34133 3.1093272-1.024 4.336-.68267 1.2266728-1.653327 2.1759966-2.912 2.848-1.258673.6720034-2.719992 1.008-4.384 1.008zm0-3.68c2.346678 0 3.52-1.503985 3.52-4.512 0-1.5146742-.303997-2.6453296-.912-3.392-.608003-.7466704-1.477328-1.12-2.608-1.12-2.346678 0-3.52 1.503985-3.52 4.512 0 3.008015 1.173322 4.512 3.52 4.512zm18.016 3.68c-1.664008 0-3.125327-.3359966-4.384-1.008-1.258673-.6720034-2.22933-1.6213272-2.912-2.848-.68267-1.2266728-1.024-2.6719917-1.024-4.336 0-1.6640083.34133-3.1093272 1.024-4.336.68267-1.2266728 1.653327-2.1706634 2.912-2.832 1.258673-.6613366 2.719992-.992 4.384-.992 1.664008 0 3.125327.3306634 4.384.992 1.258673.6613366 2.22933 1.6053272 2.912 2.832.68267 1.2266728 1.024 2.6719917 1.024 4.336 0 1.6640083-.34133 3.1093272-1.024 4.336-.68267 1.2266728-1.653327 2.1759966-2.912 2.848-1.258673.6720034-2.719992 1.008-4.384 1.008zm0-3.68c2.346678 0 3.52-1.503985 3.52-4.512 0-1.5146742-.303997-2.6453296-.912-3.392-.608003-.7466704-1.477328-1.12-2.608-1.12-2.346678 0-3.52 1.503985-3.52 4.512 0 3.008015 1.173322 4.512 3.52 4.512zM200 31.375h-5.92l-6.016-7.008v7.008h-4.832V8.815h4.832v13.568l5.792-6.688h5.76l-6.592 7.488L200 31.375z" fill="#333"/><mask id="b" fill="#fff"><use xlink:href="#a"/></mask><use fill="#FF4785" fill-rule="nonzero" xlink:href="#a"/><path d="M23.7074082 4.91663721l.1918233-4.61361355L27.7558963 0l.1661482 4.75786009c.0057823.1655845-.1237629.30450476-.2893474.3102871-.0709012.00247592-.1403856-.02025507-.1961149-.06415663l-1.4872539-1.17160554L24.1884561 5.168114c-.1320039.10013302-.3201881.07429656-.4203211-.05770737-.0421511-.0555671-.0636242-.12408429-.0607268-.19376942zM18.7751036 15.0765471c0 .7824336 5.2703662.4074336 5.9778665-.1421721 0-5.32818604-2.8589797-8.12806396-8.094254-8.12806396-5.2352744 0-8.16851322 2.84344015-8.16851322 7.10860256 0 7.4284913 10.02499342 7.5706634 10.02499342 11.6225677 0 1.1373767-.556944 1.8126941-1.782221 1.8126941-1.596573 0-2.2277763-.8153808-2.1535171-3.5877364 0-.6014263-6.08925532-.7889263-6.27490335 0-.47273546 6.7184043 3.71296055 8.65625 8.50267965 8.65625 4.6412007 0 8.279902-2.4738731 8.279902-6.9522937 0-7.9616366-10.1735119-7.7483785-10.1735119-11.6936537 0-1.599436 1.1881474-1.8126941 1.8936099-1.8126941.7425921 0 2.0792579.1308859 1.9678691 3.1164996z" fill="#FFF" fill-rule="nonzero" mask="url(#b)"/></g></svg>