<svg xmlns="http://www.w3.org/2000/svg" viewBox="13.49 12.03 110.47 33.24">
  <path fill="#FFF" fill-rule="evenodd" d="M19.486 18.034H40.74v21.254H19.486z" clip-rule="evenodd"/>
  <path fill="#C00" d="M43.652 28.658v-.003c0-2.094.086-3.962 1.64-7.26.452-.955 1.442-2.357-.02-3.98-1.183-1.185-2.538-.986-3.446-.467.52-.908.72-2.263-.467-3.448-1.63-1.462-3.03-.47-3.99-.022-3.29 1.56-5.16 1.646-7.26 1.646-2.1 0-3.97-.086-7.26-1.646-.96-.448-2.36-1.44-3.98.022-1.19 1.186-.99 2.54-.47 3.448-.91-.522-2.26-.718-3.45.466-1.46 1.624-.47 3.026-.02 3.98 1.55 3.3 1.63 5.164 1.63 7.264 0 2.1-.09 3.972-1.64 7.264-.45.956-1.45 2.358.02 3.987 1.18 1.18 2.53.98 3.44.46-.52.9-.72 2.26.47 3.44 1.62 1.46 3.02.47 3.98.01 3.29-1.55 5.16-1.64 7.26-1.64 2.1 0 3.97.09 7.26 1.64.96.45 2.36 1.44 3.98-.02 1.18-1.19.98-2.54.46-3.45.91.52 2.26.72 3.45-.47 1.46-1.63.47-3.04.01-3.99-1.55-3.3-1.64-5.17-1.64-7.27zM40.05 38.62l-7.715-6.474s-1.04-1.017-2.223-1.017c-1.178 0-2.225 1.01-2.225 1.01l-7.71 6.47-.03-.03 6.48-7.72s1.015-1.05 1.015-2.23-1.016-2.22-1.016-2.22l-6.48-7.72.03-.03 7.713 6.47s1.04 1.02 2.22 1.02c1.18 0 2.22-1.02 2.22-1.02l7.71-6.478.02.027-6.47 7.72s-1.02 1.04-1.02 2.22c0 1.18 1.02 2.22 1.02 2.22l6.47 7.71-.02.02z"/>
  <path fill="#000" d="M121.32 14.57l.275-.002.1 5.052-.307-.004c-.498-2.05-2.475-3.995-6.436-4.2-4.686-.244-6.715 2.547-6.736 5.183-.027 3.51 2.707 4.23 6.76 5.22 1.914.46 8.994 1.39 8.428 9.35-.394 5.56-5.19 8.2-11.984 7.99 0 0-2.82-.1-6.766-1.19-.738-.21-.922.04-1.225.58l-.32.01.01-5.45.31.02c.16.55.2 1.57 1.19 2.45.74.64 2.44 2.22 6.19 2.26 3.68.04 6.74-1.52 7.15-5.64.11-1.12-.02-3.66-2.5-4.83-1.95-.91-7.34-1.51-9.96-3.8 0 0-3.1-2.16-2.61-6.2.69-5.7 5.45-7.13 9.72-7.22 0 0 3.83-.03 6.87.76 0 0 .75.2 1.38-.037.24-.083.36-.24.43-.34zM94.597 27.693c6.947 1.724 7.367 6.738 7.266 8.146-.31 6.27-5.64 6.99-7.78 6.99H77.7l.017-.32c1.19-.16 2.082-.82 2.082-2.9l.1-21.62c.02-2.35-.6-3.06-1.9-3.22l-.03-.3h12.4c2.27 0 9.11-.46 9.7 5.84.46 5.03-5.07 7.14-5.48 7.36zm1.824 8.186c.13-6.09-4.34-7.71-8.96-7.96-.09-.01-.05-.24.01-.25 1.51-.06 7.49-.75 7.24-6.46-.24-5.56-4.46-5.68-6-5.7-1.26-.02-1.53-.02-2.06.01-.89.03-1.12.1-1.11 1.07 0 .12-.2 10.01-.31 16.97-.06 3.78-.07 6.7-.07 6.7.02.68-.07 1.39 1.64 1.47 1.76.08 4.04.15 5.62-.18 1.46-.32 3.94-1.37 4.03-5.68zm-32.65-21.4c5.9-.03 13.67 4.02 13.65 14.13-.02 8.79-6.37 14.21-12.24 14.21H50.29l.017-.32c.847-.14 1.776-.67 1.93-1.23.497-2.12.39-21.51.08-24.7-.09-1-.872-1.64-1.84-1.8l-.02-.31H63.78zm2.7 26.51c2.64-.95 5.92-5.46 5.38-12.57-.52-6.88-3.14-12.27-10.12-12.78 0 0-1.32-.1-2.43-.11-1.18-.01-1.44-.05-1.53 1.21-.16 2.37-.2 20.85-.05 23.53.03.36.07 1.24 1.59 1.39 2.78.27 5.08.05 7.17-.7z"/>
</svg>
