<svg xmlns="http://www.w3.org/2000/svg" version="1.1" x="0px" y="0px" viewBox="0 0 792 612" enable-background="new 0 0 792 612" class="" color="#000000"><path fill="#000000" d="M431.6,288.4c2.4,33.8,3.6,53,3.6,57.8c0,5-0.2,9.6-0.7,13.7c-0.2,2.6-0.5,4.6-0.2,5.5 c0.2,0.7,0.5,0.7,1.2-0.5c0.5-1,1-2.2,1.9-3.8c3.4-8.6,5-18.7,5-30c0-3.8-1-20.4-3.1-49.9c-2.2-29.8-3.4-44.6-3.4-45.1 c0-1.2,0.2-1.7,0.7-1c4.3,4.8,6.2,6,6.2,3.8c0-0.5,0-1.7-0.5-2.9c-0.5-1.9-2.2-6.7-5.3-14.6c-2.9-7.4-4.6-12-5.3-13.7 c-0.5-0.7-0.7-1.2-1.2-1.2c-0.2,0-0.5,0.5-0.7,1.2c-2.9,6.2-4.1,10.3-4.1,12c1.4,3.1,2.2,7,2.2,11.8 C428,235.6,429.2,254.5,431.6,288.4z"></path><path fill="#000000" d="M393,361.1c5.8,0,10.8-3.6,15.1-10.3c5-8.2,7.7-19.2,7.7-33.4c0-5-1-20.2-2.9-45.4 c-1.9-25.4-2.9-38.4-2.9-38.6c0-1.2,0.2-1.4,0.7-1c4.1,4.8,6.2,6,6.2,3.8c0-0.5-0.2-1.7-0.5-3.1c-0.7-1.7-2.4-6.5-5.3-14.4 c-2.9-7.4-4.8-12-5.5-13.7c-0.5-1-0.7-1.2-1-1.2c-0.5,0-0.7,0.2-1,1c-2.6,6.5-4.1,10.6-4.1,12.2c1.4,3.1,2.2,7,2.2,11.5 c0,5.3,1,22.3,3.1,51.1c2.2,28.8,3.4,45.4,3.4,49.4c0,6.7-0.7,10.8-1.9,11.8c-4.3,3.6-8.9,5.5-13.4,5.5v0c-7.2,0-12.2-0.2-14.9-1 c4.1-5.3,6.2-12.7,6.2-22.1c0-3.8-0.7-7.7-1.9-11.3c-1.7-4.6-4.3-7-7.4-7c-3.4,0-7.2,3.4-12,9.6c-5,6.7-7.7,13.7-7.7,20.4 c0,4.8,0.7,8.6,2.4,11.5c-3.4,1.4-6.7,2.4-10.3,2.4c-3.6,0-6.2-0.7-8.2-1.7c-3.1-2.2-5.5-6.7-6.7-13.4c-0.2-2.4-1-16.3-1.4-41.5 c-0.7-26.9-1.7-44.9-2.6-54c-1.7-14.4-3.8-24.7-7-30.7c-0.5-1-1-1.7-1.2-1.7c-0.5,0-0.7,0.7-1.2,1.9c-1.9,4.8-2.9,8.2-2.9,10.6 c2.6,9.1,4.6,18.5,5.8,28.6c0.5,6.2,1.2,23,2.2,50.4c0.7,25.4,1.7,40.6,2.6,45.8c1.4,8.4,4.1,13.9,8.4,17c2.9,2.2,7,3.4,12.2,3.4 c5.3,0,11.5-2.6,18.5-7.7C371.4,359.4,380.5,361.1,393,361.1L393,361.1z M368,341.6c-1.9-0.7-3.8-1.9-5.5-3.8 c-1.7-1.7-2.9-3.4-3.4-4.8c1.2-2.6,3.1-5.5,6.2-8.9c3.1-3.4,5.5-5,7-5c1.2,0,2.6,1.9,4.3,5.8c1.4,3.4,2.2,6.2,2.2,8.2 C376.9,336.1,373.3,339,368,341.6z"></path><path fill="#000000" d="M309,334.9c1.9,0,3.4-0.7,3.8-2.2l3.6-10.1c0.7-1.4-0.7-2.2-3.6-2.2c-8.4,0-20.2-1-35.3-3.1 c-13.4-1.9-24.5-3.6-32.9-5.5h-0.6c3.6-2.9,7.1-6.1,10.4-9.8c3.6-3.8,8.4-11.5,14.4-22.6c4.6-8.4,8.2-12.5,10.8-12.7 c1.4,0.2,3.1,1.4,4.6,4.1c1.7,2.6,2.4,6,2.4,9.6c0,3.1,0.5,4.6,1.4,4.6c0.7,0,1.4-1.2,1.9-3.8c0.7-3.8,1.2-7.7,1.2-11.3 c0-5.8-1.2-10.1-3.1-13.7c-1.9-2.6-3.6-4.1-5.5-4.1c-2.6,0-6.5,4.3-12,13c-7,11.3-12,18.5-15.4,21.8c-5.8,5.8-11.5,10.3-17.5,14.2 c-2.9,1.9-7,4.1-12,6.5c-3.4,1.7-5.5,3.1-6.2,4.3c-1.9,4.1-3.1,7.4-3.6,9.6c-0.7,1.4,0.2,2.2,2.6,2.2c1.7,0,8.6,1,20.6,2.4 c17.5,2.4,27.1,3.8,28.6,4.1c-7.7,3.8-15.6,7.7-23.5,11.3c-11.9,5.2-22.6,7.9-32.4,7.9v-0.2c-4.6,0-8.2-0.7-11-1.9 c-2.9-1.4-5.5-4.1-8.2-7.7c-1.9-3.1-3.6-6.2-5.5-9.4c-2.2-3.1-4.8-4.8-7.4-4.8c-3.4,0-7.4,1.9-11.5,6.2c-4.3,4.3-7.9,9.4-10.8,15.1 c-3.4,7.2-6.7,14.4-9.8,21.6c-3.4,6-6.7,9.1-10.6,9.1c-9.6,0-14.2-10.3-14.2-30.7c0-4.3,0.2-9.6,1-15.8c0-0.1,0-0.2,0-0.3 c2.8-0.4,4.8-4,6-10.8c0.2-0.2,0.2-0.5,0-0.7c0-0.2,0-0.2-0.2,0c0,0-0.2,0.2-0.2,0.5c-1.7,2.9-3.1,4.6-4.6,4.6 c-2.2,0-3.1-2.2-3.1-6c0-3.1,1.2-8.2,3.6-15.6c0.5-1.7,0.7-2.6,0.7-2.9c-0.2,0-0.7,1-1.7,2.6c-3.8,7-5.5,13.9-5.5,20.4 c0,4.3,1,6.9,3.1,7.7c-1.9,5.7-2.8,13.6-2.8,23.1c0,7.9,1.4,15.6,4.8,23c3.8,8.4,8.4,12.7,13.7,12.7c3.6,0,7.2-2.4,10.3-7.2 c2.2-3.4,4.6-8.4,7.2-15.4c2.9-7,4.8-11.3,5.8-13c6.2-9.4,12-13.9,17.5-13.9c1.7,0,3.4,1.2,5.3,4.1c1.9,3.4,3.8,6.7,5.8,9.8 c3.1,4.8,7,7.9,11.8,9.4c2.1,0.5,5.6,0.9,10.6,1v0c0,0,0,0,0.1,0c0.1,0,0.1,0,0.2,0v0c7.1,0,15.2-1.9,24.2-5.3 c4.8-1.9,13-5.5,24-11c10.1-5,18-8.6,23.5-10.3C288.4,335.6,296.8,334.9,309,334.9z"></path><path fill="#000000" d="M367.6,278c-0.2,0-0.7,0.2-1,0.7l-4.6,9.6c-0.2,0.5-0.2,0.7,0,1c3.8,2.4,7.7,5,11.3,7.9 c0.5,0.2,0.7,0,1.2-0.7c3.4-5.3,5-8.6,5-10.3c0-0.5-1.9-1.9-5.8-4.6C370.2,279.2,368,278,367.6,278z"></path><path fill="#000000" d="M272.3,237.9c0.5,0.2,1,0,1.2-0.7c1.4-2.2,2.6-4.8,4.1-7.7c4.1,2.6,7.7,5,10.8,7.4c0.5,0.2,1,0.2,1.4-0.5 c3.1-5.3,4.8-8.9,4.8-10.6c0-0.5-1.9-1.9-5.5-4.3c-3.8-2.6-5.8-3.8-6.2-3.8c-0.5,0-0.7,0.2-1,0.7l-3.8,7.9c-1-1-3.1-2.6-6.2-4.6 c-3.1-2.2-4.8-3.4-5.3-3.4c-0.2,0-0.7,0.5-1,1l-4.6,9.6c-0.2,0.5-0.2,0.7,0,1C264.8,232.4,268.7,235.1,272.3,237.9z"></path><path fill="#000000" d="M162.1,292.9l-4.6,9.6c-0.2,0.5-0.2,0.7,0,1c3.8,2.4,7.7,5,11.3,7.9c0.5,0.2,1,0,1.2-0.7 c1.4-2.2,2.6-4.8,4.1-7.7c4.1,2.6,7.7,5,10.8,7.4c0.5,0.2,1,0.2,1.4-0.5c3.1-5.3,4.8-8.9,4.8-10.6c0-0.5-1.9-1.9-5.5-4.3 c-3.8-2.6-5.8-3.8-6.2-3.8c-0.5,0-0.7,0.2-1,0.7l-3.8,7.9c-1-1-3.1-2.6-6.2-4.6c-3.1-2.2-4.8-3.4-5.3-3.4 C162.8,291.9,162.4,292.4,162.1,292.9z"></path><path fill="#000000" d="M362,236.3c3.4,0,6-1.7,8.4-4.6c0.7-1,1.2-3.6,1.7-7.7c0.2-3.6-2.2-7.4-7.2-11c0.7-2.4,1.7-4.8,2.6-7 c0-0.2,0.2-0.5,0.2-0.5c0-0.5-0.5-0.7-1-0.7c-0.7,0-1.7,0.5-2.4,1.7c-3.4,6.5-5.8,13.4-7,21.1c-0.2,1-0.2,1.9-0.2,2.6 C357.2,234.1,358.7,236.3,362,236.3z M362.3,219.5c5,2.9,7.4,5,7.4,6.2c-0.5,1-1.7,1.9-3.4,2.6c-1.7,1-3.1,1.4-4.3,1.4 c-1.4,0-2.2-1-2.2-2.4C359.9,225,360.6,222.4,362.3,219.5z"></path><path fill="#000000" d="M307.6,351c0.5-0.7,0.5-1.2,0.2-1.2c-0.2-0.2-0.5,0-1.4,0.2c-15.1,5.5-29.5,10.8-43.2,15.6 c-1.2,2.4-1.9,4.6-2.4,6.7c17-7.2,31.9-13,44.9-17.5C306.1,354.4,306.8,353.1,307.6,351z"></path><path fill="#000000" d="M242.3,247.1c0.2-0.7,0.2-1.2,0.2-1.2c-0.2-0.2-0.7,0-1.4,0.2c-20.2,7.4-39.4,14.6-57.8,21.4 c-1.2,2.4-1.9,4.6-2.4,6.7c22.6-9.4,42.5-17,59.3-23.3C240.6,250.4,241.3,249.2,242.3,247.1z"></path><path fill="#000000" d="M408.4,375.7c-2.2,0-4.1,2.2-6,6.5c-1.7,6.2-2.9,11-3.4,14.2c0,0.5-0.2,0.7-0.2,1h-0.2c0-0.2,0-0.5-0.2-1 c-0.7-5.3-2.4-9.6-4.6-12.7c-2.2-3.4-4.6-4.8-7.4-4.8c-0.2,0-1,0.7-1.9,2.6c-1.2,1.9-1.7,3.1-1.7,3.4c0,0.7,0.5,1.7,1.9,2.9 c1.4,1.2,2.4,1.9,3.4,1.9c0.7,0,1-0.2,1.2-0.5c0.2-0.5,0.5-0.5,1-0.5c1,0,2.2,2.2,4.1,7c1.9,4.6,2.9,7.7,2.6,9.4 c0.2,1,0.2,1.7,0.7,1.7c0.5,0,1-0.7,1.7-1.7c0.7-1.7,1.7-4.6,2.4-8.6c1.7-9.1,3.4-13.7,5.3-13.7c1,0,1.9,0.5,2.6,1.4 c1,1,1.4,1.7,1.7,1.7c0.5,0,1-0.7,1.4-2.2c0.5-1,0.5-1.9,0.5-2.4c0-1-0.5-1.9-1.4-3.4C410.8,376.4,409.6,375.7,408.4,375.7z"></path><path fill="#000000" d="M198.6,385.3c-0.2-0.2-0.5,0-1.4,0.2c-15.1,5.5-29.5,10.8-43.2,15.6c-1.2,2.4-1.9,4.6-2.4,6.7 c17-7.2,31.9-13,44.9-17.5c0.5-0.5,1.2-1.7,1.9-3.8C198.8,385.8,198.8,385.3,198.6,385.3z"></path><path fill="#000000" d="M249,399.7c-5.8,1.7-10.8,2.6-15.8,2.6c-5,0-7.7-1.2-7.7-3.6c0-1,0.5-2.4,1.4-3.8c2.6-2.6,5.3-5.3,7.9-7.9 c3.6-4.1,5.3-7,5.3-9.1c0-2.9-2.6-4.1-8.4-4.1c-2.6,0-4.6,0.5-5.8,1.4c-1,0.7-1.9,2.4-2.9,4.8c-0.2,0.5-0.2,0.7-0.2,0.7 c0.2,0.2,0.5,0,0.7,0c1.7-1,3.1-1.2,4.3-1.2c2.4,0,4.8,0.2,6.7,1c1,0.5,1.2,1,0.5,1.4c-2.6,3.1-5.5,6-8.4,9.1 c-2.9,3.4-4.1,6.7-4.1,10.1c0,1.9,0.7,3.6,2.2,4.8c1.4,1.2,3.6,1.9,5.8,1.9c7.7,0,14.2-2.4,19-6.7c1.2-1,1.7-1.7,1.7-1.7 C251.2,399.2,250.4,399.2,249,399.7z"></path><path fill="#000000" d="M359.6,393.7c0,0-0.2,0.2-0.2,0.5c-1.7,2.9-3.1,4.6-4.6,4.6c-2.2,0-3.1-2.2-3.1-6c0-3.1,1.2-8.2,3.6-15.6 c0.5-1.7,0.7-2.6,0.7-2.9c-0.2,0-0.7,1-1.7,2.6c-3.8,7-5.5,13.9-5.5,20.4c0,5.3,1.4,7.9,4.6,7.9c3.1,0,5.3-3.6,6.5-10.8 c0.2-0.2,0.2-0.5,0-0.7C359.9,393.5,359.9,393.5,359.6,393.7z"></path><path fill="#000000" d="M138.6,263.9c1.4,1.2,2.4,1.9,3.4,1.9c0.7,0,1-0.2,1.2-0.5c0.2-0.5,0.5-0.5,1-0.5c1,0,2.2,2.2,4.1,7 c1.9,4.6,2.9,7.7,2.6,9.4c0.2,1,0.2,1.7,0.7,1.7c0.5,0,1-0.7,1.7-1.7c0.7-1.7,1.7-4.6,2.4-8.6c1.7-9.1,3.4-13.7,5.3-13.7 c1,0,1.9,0.5,2.6,1.4c1,1,1.4,1.7,1.7,1.7c0.5,0,1-0.7,1.4-2.2c0.5-1,0.5-1.9,0.5-2.4c0-1-0.5-1.9-1.4-3.4c-1-1.4-2.2-2.2-3.4-2.2 c-2.2,0-4.1,2.2-6,6.5c-1.7,6.2-2.9,11-3.4,14.2c0,0.5-0.2,0.7-0.2,1h-0.2c0-0.2,0-0.5-0.2-1c-0.7-5.3-2.4-9.6-4.6-12.7 c-2.2-3.4-4.6-4.8-7.4-4.8c-0.2,0-1,0.7-1.9,2.6c-1.2,1.9-1.7,3.1-1.7,3.4C136.7,261.7,137.2,262.7,138.6,263.9z"></path><path fill="#000000" d="M218.3,244.9c3.1,0,5.3-3.6,6.5-10.8c0.2-0.2,0.2-0.5,0-0.7c0-0.2,0-0.2-0.2,0c0,0-0.2,0.2-0.2,0.5 c-1.7,2.9-3.1,4.6-4.6,4.6c-2.2,0-3.1-2.2-3.1-6c0-3.1,1.2-8.2,3.6-15.6c0.5-1.7,0.7-2.6,0.7-2.9c-0.2,0-0.7,1-1.7,2.6 c-3.8,7-5.5,13.9-5.5,20.4C213.7,242.3,215.2,244.9,218.3,244.9z"></path><path fill="#000000" d="M219,293.1v0.2c0.2,0,1-0.5,2.4-1.4c3.4-2.4,6-5.3,8.2-8.4c1.9-3.1,3.1-6,3.1-8.6c0-3.1-1.4-4.8-4.1-4.8 c-3.4,0-5.3,1.9-6.2,6c-0.2,1-0.2,1.4-0.2,1.4c0,0.2,0.2,0.2,0.2,0.2c0.2,0,0.5-0.2,1.2-0.5c0.7-0.5,1.7-0.7,2.6-0.7 c1.7,0,2.6,1,2.6,2.6c0,2.2-2.9,6-8.4,12C219.5,292.4,219,292.9,219,293.1z"></path><path fill="#000000" d="M308.3,297c1.9-3.1,3.1-6,3.1-8.6c0-3.1-1.4-4.8-4.1-4.8c-3.4,0-5.3,1.9-6.2,6c-0.2,1-0.2,1.4-0.2,1.4 c0,0.2,0.2,0.2,0.2,0.2c0.2,0,0.5-0.2,1.2-0.5c0.7-0.5,1.7-0.7,2.6-0.7c1.7,0,2.6,1,2.6,2.6c0,2.2-2.9,6-8.4,12 c-1,1.2-1.4,1.7-1.4,1.9v0.2c0.2,0,1-0.5,2.4-1.4C303.5,303,306.1,300.1,308.3,297z"></path><path fill="#000000" d="M316,375.5c-2.2,0-4.1,2.2-6,6.5c-1.7,6.2-2.9,11-3.4,14.2c0,0.5-0.2,0.7-0.2,1h-0.2c0-0.2,0-0.5-0.2-1 c-0.7-5.3-2.4-9.6-4.6-12.7c-2.2-3.4-4.6-4.8-7.4-4.8c-0.2,0-1,0.7-1.9,2.6c-1.2,1.9-1.7,3.1-1.7,3.4c0,0.7,0.5,1.7,1.9,2.9 c1.4,1.2,2.4,1.9,3.4,1.9c0.7,0,1-0.2,1.2-0.5c0.2-0.5,0.5-0.5,1-0.5c1,0,2.2,2.2,4.1,7c1.9,4.6,2.9,7.7,2.6,9.4 c0.2,1,0.2,1.7,0.7,1.7c0.5,0,1-0.7,1.7-1.7c0.7-1.7,1.7-4.6,2.4-8.6c1.7-9.1,3.4-13.7,5.3-13.7c1,0,1.9,0.5,2.6,1.4 c1,1,1.4,1.7,1.7,1.7c0.5,0,1-0.7,1.4-2.2c0.5-1,0.5-1.9,0.5-2.4c0-1-0.5-1.9-1.4-3.4C318.4,376.2,317.2,375.5,316,375.5z"></path><path fill="#000000" d="M670.2,311.9c-0.7-1-1.2-1.2-1.7-1.2c-0.5,0-1,0.7-1.2,2.2c-1.4,4.6-2.4,7.9-2.6,9.8 c2.2,3.6,3.1,5.5,3.1,5.8c-1,1.7-3.1,2.6-6.5,2.6c-2.6,0-5-1-6.7-2.4c-1.9-1.4-2.9-3.1-2.9-4.8c0,0.5,0.7-1.4,1.7-5.5 c0.5-2.2,0.2-3.1-0.7-3.1c-0.7,0-1.4,0.5-2.4,1.4c-2.4,3.8-5,7.7-7.4,11.8c-3.8,5-8.9,7.7-14.9,7.7c-7.4,0-11.3-2.9-11.3-8.2 c0-1.2,0.2-2.6,0.7-4.6c0.5-1.9,0.7-3.4,0.7-4.1c0-1-0.2-1.4-0.7-1.4c-0.7,0-1.7,0.5-2.9,1.4c-3.8,3.4-7.7,6.2-11.5,8.2 c-1.2,0.7-5.3,2.6-11.5,5.8V333c-1,0.5-1.4,0.5-1.7,0.5c-2.4-5-5.3-9.1-8.4-12.7c-3.6-3.6-6.7-5.5-9.8-5.5c-4.1,0-7.9,2.2-11.5,6.2 c-3.8,4.8-5.5,10.1-5.5,16.1c0,7.9,5.8,12,17.3,12c5.3,0,9.6-0.7,12.5-1.7c0.5,1.7,1,3.4,1,4.8c0,2.2-3.6,6.5-10.3,13.2 c-7.7,7.2-15.6,13.2-23.8,18.2c-10.3,6.2-19,9.4-26.2,9.4c-8.4,0-14.4-2.6-18.2-7.7c-1.5-2.3-2.6-4.9-3.1-7.7 c12.1-7.4,21-14.4,26.6-20.8c1.9-2.2,3.4-5.3,4.6-9.4c1-3.6,1.4-6.5,1.4-8.9c0-5-1.4-10.6-4.1-17.3c-1.7-3.8-3.6-7.9-5.3-12 c2.9,0.7,4.8,1.2,5.5,1.2c0.5,0,0.7-0.2,0.7-0.5c0-0.5-0.7-1.4-2.4-3.1c-4.1-4.1-7.7-7.9-11-11.8c-0.5-0.5-0.7-0.7-1-0.7 c-0.5,0-0.7,0.5-1,1.7c-0.5,1.2-0.7,3.4-1.2,6.5c-0.5,3.4-0.5,5-0.5,5.5c0.2,0.5,0.7,1.2,1.4,2.6c1,1.2,1.7,2.9,2.2,5 c1.2,4.1,3.6,9.8,6.7,16.8c2.9,6.2,4.3,9.6,4.3,10.1c0,1.9-2.9,5-8.4,9.4c-4.8,3.5-10.9,7.6-18.4,12c0.7-4.4,2-9.5,3.8-15.6 c0.2-1.4,0.5-2.6,0.5-3.4c0-0.5,0-0.7-0.2-0.7c-0.5,0-1,1-2.2,3.4c-2.3,6.2-4,12.3-5.1,18.2c-3.3,1.9-6.9,3.9-10.8,6 c-9.4,5-21.1,10.6-35.3,16.6c-20.4,8.6-31.4,13.4-33.4,14.4c-5.3,2.4-7.9,3.8-7.9,4.1c0,0.2,0,0.2,0.5,0.2c1,0,3.4-0.2,7.2-1 c3.6-0.5,12.7-2.6,27.1-6c13.7-3.4,20.9-5,21.4-5c2.6,0,11-4.1,25.4-12.5c1.6-0.9,3.1-1.8,4.6-2.7c0.2,7.4,2.1,13.7,5.7,18.5 c4.3,6,10.6,9.1,18.7,9.1c9.6,0,20.6-5,33.6-14.6c8.6-6.5,16.6-13.9,23.8-22.6c3.1-3.6,5.8-8.2,7.4-13.7c1.4-4.3,2.2-7.7,2.2-10.6 l0.5-0.5v0.2c8.4-3.8,14.9-7.9,18.7-12.5c0,11,4.8,16.8,14.9,16.8c8.4,0,15.4-4.8,20.6-14.4c3.1,5.8,6.7,8.9,10.6,8.9 c5.8,0,10.1-2.6,13-7.9c2.6-4.3,4.1-9.4,4.1-15.4C673.3,318.1,672.1,314.8,670.2,311.9z M570.6,336.1c-5.8,0-8.6-1.4-8.6-4.3 c0-2.4,1.9-3.4,6.2-3.4c2.9,0,6,2.2,9.6,6.7C575.2,335.6,572.8,336.1,570.6,336.1z"></path><path fill="#000000" d="M479.2,311.1c-4.1-2.9-7.9-6.5-11.8-11.3c-1-1.2-1.4-1.7-1.4-1.9c0-0.2,1.7-0.5,4.8-0.5 c1.7,0,2.4-0.2,2.4-0.5v-0.2c0,0-0.5-0.7-1.7-1.4c-1.9-1.7-5-3.6-8.9-6.2c-4.1-2.6-6.2-3.8-7-3.8c-0.2,0-0.7,1.2-1.4,4.1 c-0.5,2.9-0.7,5.3-0.7,7.4c0,1.4,0.5,2.6,1.4,3.6c1.9,1.9,3.1,3.1,3.6,3.8c5,7.2,9.6,13,13.9,17c-5,7.9-8.2,13.9-10.1,18.5 c-1.9,5.3-2.9,11-2.9,16.8c0,8.6,2.9,13,8.6,13c3.6,0,7.9-1.7,13-5c4.8-2.9,7.9-5.8,9.8-8.6c1-1.4,1.9-3.6,2.6-6.5 c1-3.1,1.4-5.5,1.4-7.4c0-4.6-0.7-8.6-1.7-11.8c-1.7-4.3-5-9.4-9.8-14.9c4.8-7.2,8.4-12.7,10.8-16.8c3.8-6.5,5.8-11.8,5.8-15.6 c0-3.4-0.2-4.8-0.5-4.8c-0.5,0-1.2,1.2-2.4,4.1c-1.2,2.9-3.8,7.7-8.4,14.6C483.5,304.9,480.1,309.7,479.2,311.1z M490.7,341.9 c0.2,0.7-0.2,1.7-1.7,3.1c-3.4,3.4-7.4,6-11.8,7.9c-3.1,1.2-5.5,1.9-7.4,1.9c-4.3,0-6.2-1.4-6.2-4.3c0-2.2,1.7-6.2,5.5-12.7 c3.4-5.8,6-9.8,8.2-12C483.5,331.1,488,336.6,490.7,341.9z"></path><path fill="#000000" d="M472.7,275.6c1.4-2.2,2.6-4.8,4.1-7.7c4.1,2.6,7.7,5,10.8,7.4c0.5,0.2,1,0.2,1.4-0.5 c3.1-5.3,4.8-8.9,4.8-10.6c0-0.5-1.9-1.9-5.5-4.3c-3.8-2.6-5.8-3.8-6.2-3.8c-0.5,0-0.7,0.2-1,0.7l-3.8,7.9c-1-1-3.1-2.6-6.2-4.6 c-3.1-2.2-4.8-3.4-5.3-3.4c-0.2,0-0.7,0.5-1,1l-4.6,9.6c-0.2,0.5-0.2,0.7,0,1c3.8,2.4,7.7,5,11.3,7.9 C472,276.6,472.4,276.4,472.7,275.6z"></path><path fill="#000000" d="M660.4,362.3c-0.2-0.2-0.7,0.5-1.7,2.2c-0.7,1-1,1.7-0.7,2.2c0.5,1.7,0.7,2.6,0.7,2.6 c0,0.2-0.2,0.2-0.7,0.2c-3.6,0-5.5-0.2-5-1c0.5-1.4,0.7-2.6,0.7-3.1c0-0.5,0-0.7-0.2-0.7c-0.5,0-1.2,0.5-1.7,1.4 c-1,1.4-1.9,2.6-2.6,4.1c-1.2,1.4-2.6,2.2-4.6,2.2c-1,0-2.2-0.2-3.4-0.7c-1.4-0.5-2.6-0.7-3.4-0.7c-3.6,0-7,1.2-10.6,3.8 c-2.9,1.9-5.5,4.6-7.9,7.4c-3.6,4.3-6.5,7.4-8.4,9.4c-4.1,3.1-7,5-8.9,6.2c-1.9,1.2-2.9,1.9-2.9,1.9v0.2c0.5,0,1.9-0.5,4.6-1.2 c2.4-0.7,4.6-1.9,6.7-3.6c3.6-3.6,7.2-7.2,10.8-10.8c5-4.8,10.1-7,14.9-7c0.7,0,1.7,0.2,2.9,0.7c1.2,0.5,2.4,0.7,3.1,0.7 c2.9,0,5.8-1.7,8.6-4.6c3.6,1.7,6.2,1.9,7.9,1c0.5-0.5,1.2-1.7,1.9-3.8c0.7-1.9,1.2-3.6,1.2-5.3S661.3,363,660.4,362.3z"></path><path fill="#000000" d="M563.6,297c0.5,0,1-0.7,1.7-1.7c0.7-1.7,1.7-4.6,2.4-8.6c1.7-9.1,3.4-13.7,5.3-13.7c1,0,1.9,0.5,2.6,1.4 c1,1,1.4,1.7,1.7,1.7c0.5,0,1-0.7,1.4-2.2c0.5-1,0.5-1.9,0.5-2.4c0-1-0.5-1.9-1.4-3.4c-1-1.4-2.2-2.2-3.4-2.2c-2.2,0-4.1,2.2-6,6.5 c-1.7,6.2-2.9,11-3.4,14.2c0,0.5-0.2,0.7-0.2,1h-0.2c0-0.2,0-0.5-0.2-1c-0.7-5.3-2.4-9.6-4.6-12.7c-2.2-3.4-4.6-4.8-7.4-4.8 c-0.2,0-1,0.7-1.9,2.6c-1.2,1.9-1.7,3.1-1.7,3.4c0,0.7,0.5,1.7,1.9,2.9c1.4,1.2,2.4,1.9,3.4,1.9c0.7,0,1-0.2,1.2-0.5 c0.2-0.5,0.5-0.5,1-0.5c1,0,2.2,2.2,4.1,7c1.9,4.6,2.9,7.7,2.6,9.4C563.2,296.3,563.2,297,563.6,297z"></path><path fill="#000000" d="M586,243c0.5-0.5,1.2-1.7,2.2-3.8c0.2-0.7,0.2-1.2,0-1.2c0-0.2-0.5,0-1.2,0.2 c-25.9,9.6-51.1,18.7-75.4,27.8c-1.2,2.4-1.9,4.6-2.4,6.7c2.6-1.7,16.3-7.2,40.6-16.1C573.5,247.8,585.7,243.2,586,243z"></path><path fill="#000000" d="M450.6,252.4c0.2,0,1.2-0.2,2.4-0.7c7.7-2.9,12-4.6,13-5c3.6-1.4,7.7-4.1,12.2-7.2c3.8-2.9,7-6,9.6-9.6 c2.2,1.2,3.6,2.4,4.1,3.4c2.2-2.9,3.1-5,3.1-6.2c-0.5-1-1.9-2.2-4.3-3.4c1.2-3.4,1.7-6.2,1.7-8.9c0-2.9-0.7-4.6-2.4-5 c-1.9-0.7-4.3,0.2-7.2,2.9c-2.9,2.4-4.3,5.3-4.3,8.4c0,2.6,2.2,5,6.7,7.4c-3.4,3.6-8.4,7.4-15.4,11.8c-6,3.4-11.8,6.7-17.5,10.3 c-1.4,0.7-1.9,1.4-1.9,1.7C450.4,252.1,450.4,252.4,450.6,252.4z M482.5,217.8c0-0.5,0.5-1,1.4-1.4c1-0.5,1.7-0.7,2.2-0.7 c1.2,0,1.9,0.7,2.2,2.2c0.2,1.4,0.2,2.9-0.2,4.3C484.4,220.4,482.5,219,482.5,217.8z"></path><path fill="#000000" d="M589.1,293.9c0.5,0,1.2-0.2,2.4-0.7c1.2-0.7,6.5-2.6,15.4-6.2c4.8-1.9,9.4-4.3,13.9-7 c6.7-4.1,12-8.9,15.8-13.9c2.2,1.2,3.1,2.2,3.1,2.6c0,0.2-0.7,2.4-2.2,6.7c-1.4,4.3-1.9,7.7-1.9,10.3c0,5.3,1.4,7.9,4.6,7.9 c2.9,0,5-3.6,6.5-10.8c0-0.5,0-0.7,0-0.7c0-0.2-0.2-0.2-0.2-0.2c-0.2,0.2-0.2,0.5-0.5,0.7c-1.7,2.9-3.1,4.6-4.3,4.6 c-2.2,0-3.1-2.2-3.1-6.2c0-3.4,1.2-7.9,3.6-13.7c0.5-1.4,0.7-2.6,0.7-3.4c0-1.4-1-2.9-3.4-4.3c1.2-3.1,1.7-6,1.7-8.6 c0-2.9-1-4.6-2.4-5c-1.9-0.7-4.3,0.2-7.2,2.6c-2.9,2.6-4.3,5.5-4.3,8.6c0,2.6,2.2,5,6.7,7.4c-3.4,3.6-10.3,8.4-20.4,14.2 c-7.7,4.3-15.1,8.6-22.8,13c-1.4,1-1.9,1.4-1.9,1.9C588.8,293.6,588.8,293.9,589.1,293.9z M631.3,254c0-0.5,0.5-1,1.4-1.4 c1-0.5,1.7-0.7,2.2-0.7c1.2,0,1.9,0.7,2.2,2.2c0.2,1.4,0.2,2.9-0.2,4.3C633.2,256.7,631.3,255.2,631.3,254z"></path><path fill="#000000" d="M523.8,246.6c3.1,0,5.3-3.6,6.5-10.8c0.2-0.2,0.2-0.5,0-0.7c0-0.2,0-0.2-0.2,0c0,0-0.2,0.2-0.2,0.5 c-1.7,2.9-3.1,4.6-4.6,4.6c-2.2,0-3.1-2.2-3.1-6c0-3.1,1.2-8.2,3.6-15.6c0.5-1.7,0.7-2.6,0.7-2.9c-0.2,0-0.7,1-1.7,2.6 c-3.8,7-5.5,13.9-5.5,20.4C519.2,243.9,520.7,246.6,523.8,246.6z"></path><path fill="#000000" d="M389.2,255.9c0.5-0.7,0.5-1.2,0.2-1.2c-0.2-0.2-0.5,0-1.4,0.2c-15.1,5.5-29.5,10.8-43.2,15.6 c-1.2,2.4-1.9,4.6-2.4,6.7c17-7.2,31.9-13,44.9-17.5C387.7,259.3,388.4,258.1,389.2,255.9z"></path></svg>
