<svg width="303" height="72" viewBox="0 0 303 72" xmlns="http://www.w3.org/2000/svg"><title>Page 1</title><path d="M222.944 19.375H213.5c-.387 0-.7.312-.7.694v29.293c0 .383.313.693.7.693h9.444c.386 0 .698-.31.698-.693v-29.3a.697.697 0 0 0-.698-.693m42.203-9.004h-9.445c-.386 0-.7.31-.7.693V49.36c0 .383.314.694.7.694h9.445c.386 0 .7-.31.7-.693v-38.3a.696.696 0 0 0-.7-.695m-46.94-5.95c-3.307 0-5.988 2.66-5.988 5.95 0 3.282 2.68 5.95 5.982 5.95s5.988-2.668 5.988-5.95c0-3.29-2.68-5.95-5.987-5.95m84.592 18.803v-3.14a.696.696 0 0 0-.7-.694h-9.444a.696.696 0 0 0-.696.694v15.976c0 3.347-1.826 5.103-4.395 5.103-2.567 0-4.22-1.76-4.22-5.11V20.08a.696.696 0 0 0-.7-.694h-9.446a.694.694 0 0 0-.697.694v15.976c0 6.3.9 9.29 1.973 10.704 1.87 2.47 4.644 3.983 8.295 3.983 3.29 0 5.565-1.524 7.582-3.1.64-.498 1.593-.786 1.593.58v2.735c-.055 1.834-1.257 3.39-2.77 4.206-.036.018-.07.037-.11.054a4.97 4.97 0 0 1-2.42.563c-.026 0-2.097-.013-3.22-.2-.417-.07-.787.198-.824.617l-.704 8.11a.703.703 0 0 0 .585.756c3.54.55 7.29.44 11.236-.91 6.233-2.13 9.087-6.73 9.087-13.392v-27.5c0-.007-.005-.023-.005-.033m-54.54-3.852H244a.697.697 0 0 1-.698-.694v-7.616a.697.697 0 0 0-.698-.694h-9.444c-.387 0-.7.31-.7.69v7.615a.697.697 0 0 1-.7.694h-2.934c-.386 0-.7.31-.7.693v8.053c0 .384.314.694.7.694h2.935c.39 0 .7.31.7.695v13.298c0 4.38 3.038 7.933 7.99 7.933 3.62 0 6.735-.563 8.027-1.18.283-.138.487-.364.487-.668v-6.52a.696.696 0 0 0-.805-.685c-1.56.233-4.853.94-4.853-3.18v-9c0-.385.313-.695.7-.695h4.258c.387 0 .7-.31.7-.694v-8.05a.696.696 0 0 0-.7-.695M100.79 29.33c3.756 0 5.918-1.81 5.918-4.69v-.113c0-3.107-2.275-4.69-5.975-4.69H94.2a.694.694 0 0 0-.696.69v8.116c0 .382.31.692.696.692h6.585zm-18.326-18.3c0-.382.31-.692.696-.692h18.138c6.09 0 10.3 1.584 12.974 4.298 2.333 2.26 3.527 5.315 3.527 9.217v.112c0 5.74-2.92 9.648-7.45 11.82a.684.684 0 0 0-.288 1.007l8.295 12.043a.693.693 0 0 1-.575 1.084H106.86a.94.94 0 0 1-.78-.42l-7.39-11.04a1.196 1.196 0 0 0-.995-.53h-3.5a.693.693 0 0 0-.697.69v10.603a.695.695 0 0 1-.695.692H83.16a.694.694 0 0 1-.696-.694V11.03zm59.538 20.36c0 .38-.292.69-.652.69h-9.65c-.36 0-.652-.31-.652-.69 0-3 2.37-5.365 5.433-5.365 3.308 0 5.527 2.365 5.527 5.364zm-5.99-12.63c-9.614 0-15.58 7.495-15.58 16.327 0 8.83 6.54 15.655 15.58 15.655 8.09 0 12.882-3.5 15.07-8.73.19-.45-.166-.95-.658-.95h-8.267c-.333 0-.642.147-.874.385-1.068 1.104-2.413 1.823-4.297 1.823l-.014-.003-.003.003c-3.52 0-6.3-1.822-6.3-4.82 0-.38.31-.69.692-.69h.02l.003-.002h19.773a.697.697 0 0 0 .7-.695v-1.976c0-8.832-5.49-16.326-15.85-16.326zm59.473-.056c-4.233 0-7.258 1.7-9.832 4.444a.538.538 0 0 1-.852-.08c-1.723-2.786-4.71-4.364-8.54-4.364a10.517 10.517 0 0 0-8.228 3.865c-.32.39-.957.172-.957-.33v-2.19c0-.37-.305-.67-.678-.67h-9.468c-.387 0-.7.31-.7.694V49.36c0 .384.313.695.7.695h9.444c.385 0 .7-.31.7-.694V33.39c0-3.346 1.823-5.102 4.39-5.102 2.57 0 4.224 1.756 4.224 5.104v15.975c0 .385.312.695.7.695h9.443c.385 0 .698-.31.698-.694V33.39c0-3.346 1.884-5.102 4.45-5.102 2.57 0 4.225 1.756 4.225 5.104v15.975c0 .385.31.695.7.695h9.442c.385 0 .698-.31.698-.694V29.93c0-7.143-3.99-11.226-10.554-11.226M56.34 39.9L32.753 22.762a3.39 3.39 0 0 0-3.985 0L18.256 30.4a2.82 2.82 0 0 1-2.112.506 2.815 2.815 0 0 1-1.852-1.135 2.814 2.814 0 0 1-.507-2.11 2.82 2.82 0 0 1 1.135-1.85l7.454-5.412h.002l6.488-4.714a9.29 9.29 0 0 1 11.864.78c.716.685 1.833.727 2.634.144l12.978-9.43V39.9zm-.298 6.697l-.034.226c-.08.495-.41 1.21-.77 1.554a2.615 2.615 0 0 1-3.37.242L40.355 40.24l-.084-.06c-.692-.508-1.832-.502-2.47.084a1.92 1.92 0 0 0 .16 2.98l.14.1 10.56 7.67c.59.43 1.02 1.06 1.12 1.783a2.607 2.607 0 0 1-1.05 2.506l-.242.175a2.622 2.622 0 0 1-3.08 0l-13.096-9.51c-.7-.505-1.84-.5-2.474.085a1.92 1.92 0 0 0 .16 2.978l10.698 7.773c.59.428 1.02 1.06 1.12 1.782a2.6 2.6 0 0 1-1.05 2.502l-.244.176a2.62 2.62 0 0 1-3.08 0l-2.39-1.734-10.71-7.78c-.696-.507-1.837-.5-2.47.085a1.92 1.92 0 0 0 .16 2.977l10.7 7.772c.586.426 1.02 1.06 1.12 1.78a2.607 2.607 0 0 1-1.054 2.507l-.235.17a2.612 2.612 0 0 1-2.773.19L4.183 48.64V7.175L15.31 15.26l3.507 2.547-6.355 4.618a6.966 6.966 0 0 0-2.806 4.58 6.964 6.964 0 0 0 1.254 5.225 6.98 6.98 0 0 0 4.58 2.808 6.972 6.972 0 0 0 5.226-1.254l8.888-6.457a1.966 1.966 0 0 1 2.314 0l23.32 16.95c.634.59.94 1.45.804 2.32zm-2.7-42.415l-10.57 7.68a.97.97 0 0 1-1.096.037 13.483 13.483 0 0 0-14.346-.22 2.14 2.14 0 0 0-.39.22l-4.567 3.32L7.18 4.18h46.162zM59.91.612A2.085 2.085 0 0 0 58.43 0H2.09A2.09 2.09 0 0 0 0 2.09v47.614c0 .67.32 1.297.86 1.69L27.962 71.09a3.908 3.908 0 0 0 4.597 0l27.1-19.687a2.094 2.094 0 0 0 .86-1.692V2.097a2.09 2.09 0 0 0-.616-1.48z" fill="#212E61" fill-rule="evenodd"/></svg>