<svg width="2598" height="804" viewBox="0 0 2598 804" version="1.1" xmlns="http://www.w3.org/2000/svg" xmlns:xlink="http://www.w3.org/1999/xlink">
<title>storybook-logo-new</title>
<desc>Created using Figma</desc>
<g id="Canvas" transform="matrix(2 0 0 2 856 -2058)">
 clip-path="url(#clip-0)"<g id="storybook-logo-new">
<g id="Vector">
<use xlink:href="#path0_fill" transform="translate(-347 1104)" fill="#AD76B8"/>
</g>
<g id="Group">
<mask id="mask0_alpha" mask-type="alpha">
<g id="Vector">
<use xlink:href="#path1_fill" transform="translate(-333 1090)" fill="#ED5B87"/>
</g>
</mask>
<g id="Vector" mask="url(#mask0_alpha)">
<use xlink:href="#path1_fill" transform="translate(-333 1090)" fill="#F77199"/>
</g>
<g id="Vector 2" mask="url(#mask0_alpha)">
<use xlink:href="#path2_fill" transform="translate(-187 1085)" fill="#FFFFFF"/>
</g>
</g>
<g id="toryBook">
<use xlink:href="#path3_fill" transform="translate(-120 1129)" fill="#7AB4F9"/>
<use xlink:href="#path4_fill" transform="translate(-120 1129)" fill="#F76F6F"/>
<use xlink:href="#path5_fill" transform="translate(-120 1129)" fill="#7AB4F8"/>
<use xlink:href="#path6_fill" transform="translate(-120 1129)" fill="#B987E4"/>
<use xlink:href="#path7_fill" transform="translate(-120 1129)" fill="#A9E26B"/>
<use xlink:href="#path8_fill" transform="translate(-120 1129)" fill="#F3AD38"/>
</g>
<g id="S">
<use xlink:href="#path9_fill" transform="translate(-293 1130)" fill="#FFFFFF"/>
</g>
</g>
</g>
<defs>
<path id="path0_fill" d="M 21 246L 9 0L 0 0L 9 246L 21 246Z"/>
<path id="path1_fill" d="M 12 260L 0 14L 196 0L 196 269L 12 260Z"/>
<path id="path2_fill" d="M 0 42L 1.57576 0.763636L 26 0L 26 42L 14.1818 31.3091L 0 42Z"/>
<path id="path3_fill" d="M 795.315 64.24L 760.775 59.62C 760.775 59.62 748.895 77.44 732.175 97.9C 734.815 51.04 738.115 19.58 738.115 19.58L 702.255 16.28C 702.255 16.28 698.295 97.68 697.415 162.36C 712.375 164.12 729.755 164.12 729.755 164.12L 730.855 125.4C 747.135 143.88 765.395 163.02 765.395 163.02L 803.455 156.86C 781.455 134.86 766.495 119.46 759.235 109.78C 767.595 98.56 782.555 80.74 795.315 64.24Z"/>
<path id="path4_fill" d="M 531.498 56.98C 498.058 56.98 483.758 83.82 483.758 115.72C 483.758 142.78 496.958 163.02 528.418 163.02C 563.618 163.02 576.158 136.62 576.158 106.04C 576.158 77.66 563.838 56.98 531.498 56.98ZM 543.158 110.22C 543.158 124.52 538.318 135.52 528.418 135.52C 520.058 135.52 516.758 125.84 516.758 115.72C 516.758 99.44 522.478 86.9 531.498 86.9C 540.738 86.9 543.158 99 543.158 110.22Z"/>
<path id="path5_fill" d="M 347.041 57.2L 314.261 57.2C 314.261 63.36 314.261 69.52 314.261 75.46C 314.261 99 314.041 117.92 314.041 117.92C 314.041 129.58 309.201 132.66 303.041 132.66C 296.661 132.66 293.361 129.8 293.361 117.48C 293.361 99.44 294.681 63.8 294.681 63.8L 261.901 62.92C 261.901 62.48 260.801 90.2 260.801 122.98C 260.801 155.76 281.481 158.18 290.941 158.18C 299.961 158.18 309.861 154.66 315.141 148.94C 315.141 167.64 309.201 173.8 296.001 173.8C 287.641 173.8 277.521 169.62 272.021 165L 272.021 195.14C 281.261 200.64 291.601 203.06 301.941 203.06C 323.941 203.06 345.501 190.3 345.941 153.56C 346.601 112.64 346.821 71.72 347.041 57.2Z"/>
<path id="path6_fill" d="M 219.276 70.62C 219.276 67.32 219.496 63.8 219.716 60.28L 189.136 59.18C 189.136 59.18 186.276 104.06 186.496 163.02C 201.236 164.12 218.396 164.12 218.396 164.12C 218.176 164.12 218.396 144.54 219.276 115.06C 219.716 97.9 225.876 92.62 235.116 92.62C 240.616 92.62 247.436 95.04 247.436 95.04L 250.956 64.46C 236.656 59.62 223.456 63.8 219.276 70.62ZM 449.266 89.32C 460.706 85.14 471.706 74.8 471.706 55.44C 471.706 34.76 452.786 16.28 398.886 14.3C 390.526 13.86 381.286 13.86 371.166 14.96C 371.166 14.96 369.406 131.12 368.086 165C 368.086 165 373.146 165 375.786 165C 440.686 166.32 469.066 149.16 470.826 121.44C 471.706 106.26 464.666 94.38 449.266 89.32ZM 435.186 60.72C 434.306 69.96 424.626 77 405.926 78.32C 406.366 64.02 407.466 47.08 407.686 44.88C 428.586 45.1 435.406 52.14 435.186 60.72ZM 404.606 134.64C 404.606 124.74 404.826 115.06 404.826 105.16C 407.686 104.94 410.546 104.94 412.966 105.16C 425.946 105.6 431.886 108.68 432.766 114.4C 433.206 116.16 433.206 118.36 432.766 120.56C 430.566 129.36 420.226 133.98 404.606 134.64Z"/>
<path id="path7_fill" d="M 126.088 56.98C 92.6475 56.98 78.3475 83.82 78.3475 115.72C 78.3475 142.78 91.5475 163.02 123.007 163.02C 158.207 163.02 170.748 136.62 170.748 106.04C 170.748 77.66 158.428 56.98 126.088 56.98ZM 137.748 110.22C 137.748 124.52 132.907 135.52 123.007 135.52C 114.647 135.52 111.347 125.84 111.347 115.72C 111.347 99.44 117.068 86.9 126.088 86.9C 135.328 86.9 137.748 99 137.748 110.22ZM 636.127 56.98C 602.687 56.98 588.387 83.82 588.387 115.72C 588.387 142.78 601.587 163.02 633.047 163.02C 668.247 163.02 680.787 136.62 680.787 106.04C 680.787 77.66 668.467 56.98 636.127 56.98ZM 647.787 110.22C 647.787 124.52 642.947 135.52 633.047 135.52C 624.687 135.52 621.387 125.84 621.387 115.72C 621.387 99.44 627.107 86.9 636.127 86.9C 645.367 86.9 647.787 99 647.787 110.22Z"/>
<path id="path8_fill" d="M 20.68 163.24C 37.62 163.46 53.9 161.26 53.9 161.26C 53.9 132.44 53.9 105.38 54.12 84.92C 62.92 84.04 70.18 82.94 70.18 82.94C 70.62 69.08 69.52 56.54 69.52 56.54L 54.56 57.42C 55 36.52 55.44 25.74 55.44 25.74L 20.24 27.94C 20.24 27.94 20.24 40.92 20.46 60.72C 9.68 62.04 1.76 64.24 1.76 64.24C 2.2 75.9 6.38 88.44 6.38 88.44L 20.68 87.78L 20.68 163.24Z"/>
<path id="path9_fill" d="M 74.64 65.28L 113.28 64.32C 114.24 26.88 94.8 8.40001 60.96 8.40001C 27.12 8.40001 8.16 27.6 8.16 56.4C 8.16 106.56 72.96 107.52 72.96 134.88C 72.96 142.56 69.36 147.12 61.44 147.12C 51.12 147.12 47.04 140.4 47.52 121.68L 6.96 121.68C 3.84 168 30.96 178.56 61.92 178.56C 91.92 178.56 115.44 164.64 115.44 134.4C 115.44 80.64 49.68 82.08 49.68 55.44C 49.68 44.64 57.36 43.2 61.92 43.2C 66.72 43.2 75.36 45.12 74.64 65.28Z"/>
</defs>
</svg>
