<svg width="256" height="178" viewBox="0 0 256 178" xmlns="http://www.w3.org/2000/svg" preserveAspectRatio="xMidYMid"><g fill="none"><path d="M153.6 177.98L51.194.605H102.4L204.807 177.98H153.6z" fill="#FF4081"/><path d="M153.6 177.98l25.6-44.344 25.607 44.344H153.6z" fill-opacity=".2" fill="#FFF"/><path d="M128 133.636l25.6 44.344 25.6-44.344H128z" fill-opacity=".1" fill="#FFF"/><path d="M102.4 89.292l25.6 44.344 25.6-44.344h-51.2z" fill-opacity=".1" fill="#000"/><path d="M102.4 89.292L128 44.948l25.6 44.344h-51.2z" fill-opacity=".2" fill="#000"/><path d="M76.8 44.948l25.6 44.344 25.601-44.344h-51.2z" fill-opacity=".3" fill="#000"/><path d="M76.8 44.948L102.4.605l25.601 44.343h-51.2z" fill-opacity=".4" fill="#000"/><path d="M51.194.605L76.8 44.948 102.4.605H51.195z" fill-opacity=".5" fill="#000"/><path d="M51.194 177.98L-.013 89.292l25.606-44.344L102.4 177.98H51.193z" fill="#536DFE"/><path d="M51.194 177.98L76.8 133.636l25.6 44.344H51.195z" fill-opacity=".2" fill="#FFF"/><path d="M25.593 133.636l25.6 44.344L76.8 133.636H25.593z" fill-opacity=".1" fill="#FFF"/><path d="M25.593 133.636l25.6-44.344L76.8 133.636H25.593z"/><path d="M-.013 89.292l25.606 44.344 25.6-44.344H-.012z" fill-opacity=".1" fill="#000"/><path d="M-.013 89.292l25.606-44.344 25.6 44.344H-.012z" fill-opacity=".2" fill="#000"/><path d="M51.194 89.292l-25.6-44.344L51.193.605 76.8 44.948 51.194 89.292z" fill="#303F9F"/><path d="M76.8 44.948L51.194.605l-25.6 44.343H76.8z" fill-opacity=".2" fill="#000"/><path d="M204.806 177.98L179.2 133.636l25.606-44.344 25.6 44.344-25.6 44.344z" fill="#3F51B5"/><path d="M230.407 133.636l-25.6 44.344-25.607-44.344h51.207z" fill-opacity=".2" fill="#000"/><path d="M230.407 133.636L153.6.605h51.207l51.207 88.687-25.606 44.344h-.001z" fill="#7986CB"/><path d="M204.806 89.292l25.6 44.344 25.607-44.344h-51.207z" fill-opacity=".2" fill="#FFF"/><path d="M204.806 89.292l25.6-44.344 25.607 44.344h-51.207z" fill-opacity=".1" fill="#FFF"/><path d="M179.2 44.948L204.806.605l25.6 44.343H179.2z" fill-opacity=".1" fill="#000"/><path d="M153.6.605l25.6 44.343L204.808.605H153.6z" fill-opacity=".2" fill="#000"/></g></svg>