<?xml version="1.0" encoding="UTF-8" standalone="no"?>
<svg width="169px" height="54px" viewBox="0 0 169 54" version="1.1" xmlns="http://www.w3.org/2000/svg" xmlns:xlink="http://www.w3.org/1999/xlink">
    <!-- Generator: Sketch 3.6.1 (26313) - http://www.bohemiancoding.com/sketch -->
    <title>algolia-dark</title>
    <desc>Created with Sketch.</desc>
    <defs></defs>
    <g id="Page-1" stroke="none" stroke-width="1" fill="none" fill-rule="evenodd">
        <g id="algolia-dark" transform="translate(-8.800405, -7.644833)">
            <g id="mark" transform="translate(91.000000, 15.000000)" fill="#46AEDA">
                <path d="M19.6762357,13.3427101 L17.2184382,22.0742417 L25.1340918,17.7248577 C23.9844987,15.6115977 22.0228698,14.0136838 19.6762357,13.3427101 Z" id="Fill-1"></path>
                <path d="M5.80288646,7.45084864 C4.74412204,6.38466255 3.02651061,6.38534513 1.96774618,7.45084864 L1.4885231,7.93343094 C0.429758677,8.99893445 0.430436504,10.7285859 1.4885231,11.794772 L1.99892618,12.3080703 C3.08548148,10.5524809 4.46892463,9.00302991 6.07672822,7.72729253 L5.80288646,7.45084864 Z" id="Fill-2"></path>
                <path d="M22.3682794,4.77855765 C22.3723464,4.71985599 22.3852251,4.66388463 22.3852251,4.60381781 L22.3852251,3.23866277 C22.3845473,1.73153161 21.1712385,0.509035278 19.6739205,0.5083527 L14.9284597,0.5083527 C13.4318196,0.509035278 12.217833,1.73084904 12.217833,3.23866277 L12.217833,4.5799276 C13.7287075,4.15399922 15.3182098,3.92124029 16.962616,3.92124029 C18.8476505,3.92124029 20.6635467,4.22430471 22.3682794,4.77855765" id="Fill-3"></path>
                <path d="M17.1549586,10.9781192 C23.103711,10.9781192 27.9438997,15.8306367 27.9438997,21.7945415 C27.9438997,27.7584463 23.103711,32.6109637 17.1549586,32.6109637 C11.2062061,32.6109637 6.36601743,27.7584463 6.36601743,21.7945415 C6.36601743,15.8306367 11.2062061,10.9781192 17.1549586,10.9781192 M2.05044097,21.7945415 C2.05044097,30.1569141 8.8117723,36.9375325 17.1549586,36.9375325 C25.4981448,36.9375325 32.2594762,30.1569141 32.2594762,21.7945415 C32.2594762,13.4321688 25.4981448,6.65155036 17.1549586,6.65155036 C8.8117723,6.65155036 2.05044097,13.4321688 2.05044097,21.7945415 Z" id="Fill-4"></path>
            </g>
            <path d="M39.0290535,51.1170567 C38.4061313,49.4577107 37.8211673,47.827033 37.2721282,46.2236584 C36.723089,44.6202839 36.1550707,42.9889236 35.5701067,41.3302602 L18.3302768,41.3302602 L14.87133,51.1170567 L9.32603437,51.1170567 C10.789461,47.0625462 12.1620589,43.3124653 13.4438282,39.8654489 C14.7249196,36.419115 15.9775423,33.1475209 17.2050854,30.0520319 C18.430595,26.9551777 19.6479708,23.9975693 20.855857,21.1778416 C22.0637431,18.3581138 23.3265332,15.5663718 24.6442272,12.8019328 L29.5306759,12.8019328 C30.8483699,15.5663718 32.11116,18.3581138 33.3190461,21.1778416 C34.5269323,23.9975693 35.7436302,26.9551777 36.9704955,30.0520319 C38.1960052,33.1475209 39.4493057,36.419115 40.7310749,39.8654489 C42.0121663,43.3124653 43.3847643,47.0625462 44.8488687,51.1170567 L39.0290535,51.1170567 L39.0290535,51.1170567 Z M34.0327971,36.9078405 C32.8608357,33.7004087 31.6990417,30.5960462 30.5467372,27.5913399 C29.3930772,24.5873163 28.1940027,21.7034263 26.9501918,18.9383047 C25.6684225,21.7034263 24.4517246,24.5873163 23.2994202,27.5913399 C22.1464379,30.5960462 21.0015896,33.7004087 19.8675865,36.9078405 L34.0327971,36.9078405 L34.0327971,36.9078405 Z" id="a-first" fill="#1D3657"></path>
            <path d="M58.2447467,51.6692619 C55.0969221,51.5955435 52.8648406,50.9143311 51.5471466,49.6235771 C50.2287748,48.3341881 49.5712834,46.3253625 49.5712834,43.5971002 L49.5712834,9.09690207 L54.6759921,8.21228161 L54.6759921,42.7677685 C54.6759921,43.6168949 54.7498751,44.3165369 54.8956077,44.8694246 C55.042696,45.4216299 55.280613,45.8646227 55.6093586,46.1963553 C55.9387822,46.5274054 56.3786913,46.7765462 56.9277305,46.9424126 C57.4774475,47.1082789 58.153918,47.2468421 58.9584976,47.3574197 L58.2447467,51.6692619" id="l-first" fill="#1D3657"></path>
            <path d="M82.5671819,48.2413576 C82.1286284,48.5375962 81.2772788,48.914379 80.0144887,49.3751188 C78.7516986,49.8358587 77.2781046,50.0665699 75.5943845,50.0665699 C73.8740617,50.0665699 72.2540573,49.7894434 70.7357267,49.2372382 C69.2167183,48.6836678 67.8895348,47.827033 66.7548538,46.6659687 C65.6201729,45.5042217 64.7234089,44.0585226 64.0645619,42.3261408 C63.4063927,40.5937591 63.0762914,38.5296447 63.0762914,36.1337976 C63.0762914,34.032824 63.3867357,32.1065902 64.009658,30.3557789 C64.6319024,28.6056501 65.5374781,27.0937409 66.7277408,25.822099 C67.9166478,24.5504571 69.3712627,23.5552591 71.0922633,22.8365049 C72.812586,22.1177508 74.7525244,21.7580325 76.9120785,21.7580325 C79.2912482,21.7580325 81.3681075,21.9341375 83.144012,22.2836171 C84.9192386,22.634462 86.4104561,22.9566386 87.6183423,23.2508295 L87.6183423,48.9055055 C87.6183423,53.3286078 86.4843392,56.5346744 84.2149773,58.5250705 C81.9442597,60.5154665 78.5042921,61.509982 73.892363,61.509982 C72.0988351,61.509982 70.4063032,61.3639104 68.8140896,61.0690369 C67.221876,60.7727982 65.8397885,60.4240011 64.6691828,60.0185501 L65.6025494,55.540159 C66.6267447,55.9442449 67.880723,56.3046458 69.3631288,56.6179489 C70.8455346,56.9305694 72.391656,57.0882448 74.0021709,57.0882448 C77.0401876,57.0882448 79.2268547,56.4800682 80.5635279,55.2630325 C81.8995232,54.047362 82.5671819,52.1115721 82.5671819,49.4577107 L82.5671819,48.2413576 L82.5671819,48.2413576 Z M80.45372,26.4855643 C79.5928808,26.3572398 78.4310869,26.2917123 76.9676602,26.2917123 C74.2224644,26.2917123 72.1083246,27.1961275 70.6259189,29.0015451 C69.1435131,30.8076452 68.4026492,33.2028097 68.4026492,36.1884038 C68.4026492,37.8477497 68.6120974,39.2668284 69.0337053,40.4463223 C69.4546353,41.6264989 70.0219758,42.6019021 70.7357267,43.3766276 C71.4494776,44.1499879 72.2730364,44.7219879 73.206403,45.0898972 C74.1397696,45.4591716 75.100927,45.642785 76.0891975,45.642785 C77.4428163,45.642785 78.6873051,45.4496155 79.8219861,45.0625941 C80.9559892,44.6748901 81.853431,44.2243889 82.512278,43.7083603 L82.512278,26.9005715 C81.9991636,26.7531347 81.3138814,26.6152541 80.45372,26.4855643 Z" id="g" fill="#1D3657"></path>
            <path d="M137.187768,51.6699445 C134.039265,51.5955435 131.807184,50.9150137 130.48949,49.6242596 C129.171796,48.3348707 128.512949,46.3253625 128.512949,43.5977827 L128.512949,9.09758465 L133.619691,8.21296419 L133.619691,42.7677685 C133.619691,43.6168949 133.692218,44.3165369 133.838629,44.8694246 C133.985039,45.4223124 134.222956,45.8646227 134.553058,46.1963553 C134.881803,46.528088 135.320357,46.7772288 135.870074,46.9430951 C136.419113,47.1089615 137.095583,47.2468421 137.901519,47.3574197 L137.187768,51.6699445" id="l-latest" fill="#1D3657"></path>
            <path d="M146.136428,17.1697464 C145.222041,17.1697464 144.443219,16.8653168 143.804029,16.2578228 C143.162805,15.6489637 142.842871,14.8298706 142.842871,13.7971309 C142.842871,12.7650737 143.162805,11.9446155 143.804029,11.3371215 C144.443219,10.7282623 145.222041,10.4245153 146.136428,10.4245153 C147.051494,10.4245153 147.829638,10.7282623 148.470862,11.3371215 C149.110052,11.9446155 149.431341,12.7650737 149.431341,13.7971309 C149.431341,14.8298706 149.110052,15.6489637 148.470862,16.2578228 C147.829638,16.8653168 147.051494,17.1697464 146.136428,17.1697464 L146.136428,17.1697464 Z M143.611526,22.3668916 L148.71759,22.3668916 L148.71759,51.1170567 L143.611526,51.1170567 L143.611526,22.3668916 Z" id="i" fill="#1D3657"></path>
            <path d="M166.725397,21.6481375 C168.775144,21.6481375 170.504278,21.9163904 171.914156,22.4501661 C173.322679,22.9846243 174.45736,23.7402376 175.317521,24.7163234 C176.177683,25.6937744 176.791115,26.8548388 177.157142,28.2001991 C177.52249,29.5455594 177.706181,31.0288003 177.706181,32.6506045 L177.706181,50.6201402 C177.266949,50.6938586 176.653517,50.7948801 175.867238,50.9238872 C175.079604,51.0528944 174.19233,51.1723454 173.204059,51.282923 C172.215789,51.3935006 171.144824,51.494522 169.992519,51.58667 C168.838859,51.6781354 167.694689,51.7252332 166.560686,51.7252332 C164.949493,51.7252332 163.467765,51.5593669 162.113468,51.2276342 C160.759172,50.8959016 159.587888,50.3703169 158.599618,49.6522453 C157.611347,48.9334912 156.842692,47.9847084 156.293653,46.8045319 C155.744614,45.625038 155.470094,44.2059593 155.470094,42.5472959 C155.470094,40.9630335 155.790028,39.598561 156.431252,38.4559263 C157.070442,37.3139741 157.940093,36.3924944 159.038849,35.6914873 C160.136927,34.9918454 161.418019,34.4751342 162.882123,34.1434015 C164.34555,33.8116689 165.882859,33.6458025 167.494052,33.6458025 C168.005811,33.6458025 168.537227,33.6731056 169.086266,33.7283944 C169.635305,33.7836832 170.157231,33.8587667 170.650688,33.9502321 C171.144824,34.0423801 171.575243,34.1249719 171.941947,34.1986903 C172.307296,34.2730913 172.563514,34.32838 172.709924,34.3645566 L172.709924,32.9270484 C172.709924,32.0792871 172.618418,31.2410819 172.435405,30.4110677 C172.251714,29.581736 171.92229,28.8452348 171.447134,28.2001991 C170.9713,27.5551633 170.321265,27.0391347 169.497706,26.6514307 C168.674147,26.2650918 167.603182,26.0712398 166.286166,26.0712398 C164.601768,26.0712398 163.12953,26.1913734 161.866062,26.4309581 C160.603949,26.6705429 159.661093,26.9196836 159.038849,27.1770154 L158.434906,22.9197794 C159.093753,22.6255885 160.192509,22.3395885 161.729141,22.0631446 C163.26645,21.7860181 164.931869,21.6481375 166.725397,21.6481375 L166.725397,21.6481375 Z M167.164629,47.4127085 C168.372515,47.4127085 169.44348,47.3847228 170.376847,47.329434 C171.310213,47.2741452 172.08768,47.1738063 172.709924,47.025687 L172.709924,38.4559263 C172.34322,38.2723129 171.748767,38.1153201 170.925886,37.986313 C170.101649,37.8573058 169.104567,37.7917784 167.933283,37.7917784 C167.164629,37.7917784 166.349882,37.8477497 165.490398,37.9583273 C164.630237,38.0689048 163.842603,38.299616 163.12953,38.6490957 C162.415101,38.9999406 161.81997,39.4784274 161.344813,40.0872866 C160.868979,40.6947805 160.631062,41.4968091 160.631062,42.4920071 C160.631062,44.3349664 161.216026,45.6154819 162.387988,46.334236 C163.559271,47.0536727 165.151485,47.4127085 167.164629,47.4127085 L167.164629,47.4127085 Z" id="a-latest" fill="#1D3657"></path>
        </g>
    </g>
</svg>