<?xml version="1.0" encoding="utf-8"?>
<!-- Generator: Adobe Illustrator 15.0.0, SVG Export Plug-In . SVG Version: 6.00 Build 0)  -->
<!DOCTYPE svg PUBLIC "-//W3C//DTD SVG 1.1//EN" "http://www.w3.org/Graphics/SVG/1.1/DTD/svg11.dtd">
<svg version="1.1" id="Layer_1" xmlns="http://www.w3.org/2000/svg" xmlns:xlink="http://www.w3.org/1999/xlink" x="0px" y="0px"
	 width="246.085px" height="50px" viewBox="0 0 246.085 50" enable-background="new 0 0 246.085 50" xml:space="preserve">
<g>
	<path fill="#FFFFFF" d="M25.119-0.214C11.247-0.214,0,11.026,0,24.893C0,38.758,11.247,50,25.119,50s25.12-11.242,25.12-25.107
		C50.24,11.026,38.992-0.214,25.119-0.214z M25.119,48.601C12.017,48.601,1.4,37.983,1.4,24.893
		c0-13.094,10.617-23.709,23.719-23.709c13.097,0,23.72,10.615,23.72,23.709C48.839,37.983,38.216,48.601,25.119,48.601z"/>
	<path fill="#FFFFFF" d="M35.848,20.297c-0.831,0-1.567,0.424-2,1.069l-7.938-2.183c0.02-0.163,0.037-0.327,0.037-0.489
		c0-1.953-1.583-3.535-3.532-3.535c-1.952,0-3.534,1.582-3.534,3.535c0,1.546,1.002,2.864,2.396,3.338l-0.681,4.266
		c-0.346-0.075-0.702-0.115-1.073-0.115c-2.781,0-5.032,2.252-5.032,5.028c0,2.78,2.251,5.032,5.032,5.032
		c2.777,0,5.034-2.252,5.034-5.032c0-0.719-0.154-1.4-0.428-2.021l9.751-5.106c0.434,0.62,1.156,1.028,1.968,1.028
		c1.336,0,2.415-1.079,2.415-2.408C38.262,21.373,37.185,20.297,35.848,20.297z M23.719,28.439c-0.557-0.839-1.355-1.5-2.299-1.884
		l0.695-4.346c0.099,0.008,0.195,0.012,0.3,0.012c1.486,0,2.755-0.916,3.273-2.212l7.816,2.149
		c-0.036,0.174-0.062,0.355-0.062,0.544c0,0.208,0.03,0.409,0.079,0.604L23.719,28.439z"/>
</g>
<g>
	<g>
		<g>
			<defs>
				<rect id="SVGID_1_" x="62.506" y="6.883" width="183.579" height="36.234"/>
			</defs>
			<clipPath id="SVGID_2_">
				<use xlink:href="#SVGID_1_"  overflow="visible"/>
			</clipPath>
			<path clip-path="url(#SVGID_2_)" fill="#FFFFFF" d="M74.479,33.15c-3.066,1.382-7.519,1.133-9.413-1.23
				c-1.205-1.501-1.277-5.82,3.552-6.801c4.922-1.001,8.167,0,8.167,0S77.694,31.701,74.479,33.15L74.479,33.15z M68.186,14.594
				c-2.269,0.303-3.698,1.61-3.698,1.61l1.112,1.863c0,0,2.537-2.174,6.885-1.495c2.358,0.369,4.072,1.819,4.29,6.394
				c0,0-13.167-1.82-14.153,4.881c-1.194,8.118,7.172,8.902,11.606,7.504c3.24-1.022,3.977-3.314,4.392-4.921
				c0.635-2.45,0.454-6.275,0.025-9.465C78.462,19.608,78.106,13.268,68.186,14.594L68.186,14.594z"/>
		</g>
	</g>
	<path fill="#FFFFFF" d="M162.529,33.15c-3.064,1.382-7.52,1.133-9.411-1.23c-1.206-1.501-1.277-5.82,3.55-6.801
		c4.924-1.001,8.168,0,8.168,0S165.745,31.701,162.529,33.15L162.529,33.15z M156.237,14.594c-2.269,0.303-3.697,1.61-3.697,1.61
		l1.111,1.863c0,0,2.537-2.174,6.886-1.495c2.357,0.369,4.07,1.819,4.288,6.394c0,0-13.166-1.82-14.152,4.881
		c-1.195,8.118,7.17,8.902,11.605,7.504c3.24-1.022,3.979-3.314,4.393-4.921c0.634-2.45,0.454-6.275,0.024-9.465
		C166.517,19.608,166.157,13.268,156.237,14.594L156.237,14.594z"/>
	<path fill="#FFFFFF" d="M182.34,17.969c0,0-2.713-2.811-6.534-1.294c-1.741,0.689-2.469,2.502-2.116,3.856
		c0.422,1.631,2.043,2.704,4.166,3.262c4.821,1.267,6.106,3.049,6.422,5.314c0.462,3.32-2.152,6.725-6,6.74
		c-4.71,0.021-7.428-3.237-7.428-3.237l1.721-1.45c0,0,5.982,5.441,9.391,0.544c0.966-1.389,0.725-4.167-2.688-5.436
		c-3.912-1.454-7.034-2.173-7.699-5.312c-1.197-5.658,6.341-8.879,12.079-4.413L182.34,17.969L182.34,17.969z"/>
	<path fill="#FFFFFF" d="M198.409,16.303c7.486,0.072,6.791,8.334,6.791,8.334h-14.062
		C191.139,23.551,192.188,16.244,198.409,16.303L198.409,16.303z M205.187,32.452c-4.105,2.439-8.553,1.716-10.629,0.447
		c-3.456-2.113-3.443-6.522-3.443-6.522l15.809,0.015c0.182-1.01,0.071-3.173,0-4.227c-0.311-4.594-3.343-7.628-8.476-7.685
		c-5.496-0.062-8.555,4.166-9.16,8.031c-1.149,7.361,1.391,13.287,10.155,13.333c4.631,0.022,6.702-1.732,6.702-1.732
		L205.187,32.452L205.187,32.452z"/>
	<path fill="#FFFFFF" d="M137.726,34.077c-5.229,0.35-6.426-4.234-6.537-5.214c-0.256-2.278-0.198-6.218-0.139-10.204
		c0,0,1.701-2.396,6.586-2.065c4.029,0.271,6.679,2.783,6.541,8.57C144.058,30.206,142.788,33.74,137.726,34.077L137.726,34.077z
		 M145.164,31.042c1.264-2.89,1.591-8.503-0.305-12.008c-1.497-2.763-4.019-4.426-7.758-4.426c-4.188,0-6.111,1.624-6.111,1.624
		V7.245h-2.175v9.301c0,4.285,0,9.916,0,9.916c0,2.673,0.812,5.375,2.291,7.067c1.295,1.48,4.054,2.86,7.908,2.221
		C142.383,35.189,144.06,33.563,145.164,31.042L145.164,31.042z"/>
	<path fill="#FFFFFF" d="M99.488,25.237c0.139,5.786-2.512,8.3-6.541,8.57c-4.884,0.329-6.586-2.065-6.586-2.065
		c-0.062-3.985-0.117-7.926,0.138-10.204c0.111-0.979,1.309-5.564,6.537-5.214C98.099,16.662,99.367,20.194,99.488,25.237
		L99.488,25.237z M94.355,14.653c-3.854-0.64-6.583,0.741-7.877,2.219c-1.479,1.691-2.231,4.394-2.231,7.067c0,0,0,5.633,0,9.916
		v9.263h2.174v-8.948c0,0,1.863,1.624,6.051,1.624c3.739,0,6.202-1.664,7.696-4.427c1.896-3.506,1.569-9.12,0.305-12.007
		C99.369,16.836,97.723,15.212,94.355,14.653L94.355,14.653z"/>
	<path fill="#FFFFFF" d="M121.591,25.237c0.14,5.786-2.512,8.3-6.54,8.57c-4.883,0.329-6.585-2.065-6.585-2.065
		c-0.061-3.985-0.118-7.926,0.139-10.204c0.11-0.979,1.309-5.564,6.536-5.214C120.202,16.662,121.47,20.194,121.591,25.237
		L121.591,25.237z M116.458,14.653c-3.854-0.64-6.583,0.741-7.877,2.219c-1.48,1.691-2.231,4.394-2.231,7.067c0,0,0,5.633,0,9.916
		v9.263h2.174v-8.948c0,0,1.863,1.624,6.05,1.624c3.739,0,6.202-1.664,7.696-4.427c1.896-3.506,1.57-9.12,0.306-12.007
		C121.472,16.836,119.827,15.212,116.458,14.653L116.458,14.653z"/>
	<polygon fill="#FFFFFF" points="221.579,6.883 221.579,10.869 220.131,10.869 220.131,6.883 	"/>
	<polygon fill="#FFFFFF" points="214.332,31.885 214.332,35.871 212.884,35.871 212.884,31.885 	"/>
	<polygon fill="#FFFFFF" points="220.131,14.492 220.131,35.871 221.579,35.871 221.579,14.492 	"/>
	<path fill="#FFFFFF" d="M236.483,34.271c-4.529,0-8.2-4.063-8.2-9.074c0-5.012,3.669-9.074,8.2-9.074
		c4.529,0,8.201,4.062,8.201,9.074C244.685,30.207,241.013,34.271,236.483,34.271L236.483,34.271z M236.483,14.49
		c-5.304,0-9.604,4.756-9.604,10.623c0,5.867,4.3,10.624,9.604,10.624c5.302,0,9.602-4.757,9.602-10.624
		C246.085,19.247,241.785,14.49,236.483,14.49L236.483,14.49z"/>
</g>
</svg>
