<?xml version="1.0" encoding="UTF-8"?>
<svg width="80px" height="16px" viewBox="0 0 80 16" version="1.1" xmlns="http://www.w3.org/2000/svg" xmlns:xlink="http://www.w3.org/1999/xlink">
    <!-- Generator: Sketch 42 (36781) - http://www.bohemiancoding.com/sketch -->
    <title>buffer-logo</title>
    <desc>Created with Sketch.</desc>
    <defs></defs>
    <g id="buffer-web" stroke="none" stroke-width="1" fill="none" fill-rule="evenodd">
        <g id="buffer-logo" fill="#323B43">
            <g id="Buffer-+-Logomark">
                <g id="Buffer" transform="translate(21.643446, 0.000000)">
                    <path d="M2.93508416,15.5935101 L0.164977074,15.5935101 L0.164977074,0.0321392956 L2.93508416,0.0321392956 L2.93508416,6.07194618 C3.76393511,4.96373565 4.94177592,4.39832212 6.18505233,4.39832212 C8.86791195,4.39832212 10.8527918,6.56951009 10.8527918,10.1429236 C10.8527918,13.7841868 8.84610008,15.8649086 6.18505233,15.8649086 C4.91996405,15.8649086 3.76393511,15.2768785 2.93508416,14.1912845 L2.93508416,15.5935101 Z M2.93508416,12.0879462 C3.39313337,12.789059 4.41829111,13.3092394 5.31257765,13.3092394 C6.9266558,13.3092394 7.99543728,12.0427131 7.99543728,10.1429236 C7.99543728,8.24313415 6.9266558,6.95399129 5.31257765,6.95399129 C4.41829111,6.95399129 3.39313337,7.49678829 2.93508416,8.22051761 L2.93508416,12.0879462 Z M22.7127074,15.5935101 L19.9426004,15.5935101 L19.9426004,14.2139011 C19.2228087,15.0507131 17.9577205,15.8649086 16.234583,15.8649086 C13.9225251,15.8649086 12.8319318,14.5531492 12.8319318,12.4271943 L12.8319318,4.66972062 L15.6020388,4.66972062 L15.6020388,11.2963672 C15.6020388,12.8116755 16.3654542,13.3092394 17.543295,13.3092394 C18.6120765,13.3092394 19.4627393,12.6985928 19.9426004,12.0653296 L19.9426004,4.66972062 L22.7127074,4.66972062 L22.7127074,15.5935101 Z M28.9784532,15.5935101 L26.1865342,15.5935101 L26.1865342,7.18015671 L24.4415849,7.18015671 L24.4415849,4.66972062 L26.1865342,4.66972062 L26.1865342,4.08169054 C26.1865342,1.75218678 27.6261174,0.282111595 29.7418685,0.282111595 C30.7452144,0.282111595 31.8139959,0.553510091 32.4901638,1.29985596 L31.4431942,2.99609656 C31.1596399,2.70208152 30.7888381,2.54376573 30.2871652,2.54376573 C29.5237499,2.54376573 28.9784532,3.06394618 28.9784532,4.08169054 L28.9784532,4.66972062 L31.1160161,4.66972062 L31.1160161,7.18015671 L28.9784532,7.18015671 L28.9784532,15.5935101 Z M36.1109337,15.5935101 L33.3190147,15.5935101 L33.3190147,7.18015671 L31.5740654,7.18015671 L31.5740654,4.66972062 L33.3190147,4.66972062 L33.3190147,4.08169054 C33.3190147,1.75218678 34.7585979,0.282111595 36.874349,0.282111595 C37.8776949,0.282111595 38.9464764,0.553510091 39.6226442,1.29985596 L38.5756746,2.99609656 C38.2921203,2.70208152 37.9213186,2.54376573 37.4196457,2.54376573 C36.6562303,2.54376573 36.1109337,3.06394618 36.1109337,4.08169054 L36.1109337,4.66972062 L38.2484966,4.66972062 L38.2484966,7.18015671 L36.1109337,7.18015671 L36.1109337,15.5935101 Z M44.4694706,15.8649086 C41.2631262,15.8649086 38.842009,13.625871 38.842009,10.1203071 C38.842009,6.95399129 41.0886313,4.39832212 44.2949757,4.39832212 C47.4358845,4.39832212 49.5734475,6.84090859 49.5734475,10.4143221 L49.5734475,11.0475853 L41.7429873,11.0475853 C41.9174822,12.4271943 42.9862637,13.5806379 44.7748368,13.5806379 C45.6691233,13.5806379 46.9123997,13.1735402 47.5885676,12.4950439 L48.8100321,14.3496003 C47.7630625,15.3447281 46.1053607,15.8649086 44.4694706,15.8649086 Z M46.8905879,9.10256272 C46.8251523,8.06220182 46.1271725,6.6825928 44.2949757,6.6825928 C42.5718382,6.6825928 41.8302347,8.01696874 41.6993635,9.10256272 L46.8905879,9.10256272 Z M54.3502463,15.5935101 L51.5801392,15.5935101 L51.5801392,4.66972062 L54.3502463,4.66972062 L54.3502463,6.16241235 C55.0918498,5.18990107 56.4005618,4.39832212 57.7092738,4.39832212 L57.7092738,7.20277325 C57.512967,7.15754017 57.2512246,7.13492362 56.9458585,7.13492362 C56.0297601,7.13492362 54.8082955,7.67772062 54.3502463,8.3788334 L54.3502463,15.5935101 Z" id="buffer"></path>
                </g>
                <g id="Logomark" transform="translate(0.000000, 1.190344)">
                    <path d="M13.6751257,10.8759711 L12.1080077,10.1271144 C11.9736387,10.0628916 11.7537083,10.0628916 11.6192855,10.1271144 L7.13231903,12.2712406 C6.99795003,12.3354634 6.77796588,12.3354634 6.64359688,12.2712406 L2.1566304,10.1271144 C2.02220759,10.0628916 1.80227725,10.0628916 1.66790826,10.1271144 L0.100790197,10.8759711 C-0.033578795,10.9401939 -0.033578795,11.0452604 0.100790197,11.1094832 L6.64359688,14.2359782 C6.77796588,14.300201 6.99795003,14.300201 7.13231903,14.2359782 L13.6751257,11.1094832 C13.8094947,11.0452604 13.8094947,10.9401939 13.6751257,10.8759711" id="Fill-1"></path>
                    <path d="M13.6751257,7.02528176 L12.1080077,6.27648081 C11.9736387,6.21225801 11.7537083,6.21225801 11.6192855,6.27648081 L7.13231903,8.42055125 C6.99795003,8.48477404 6.77796588,8.48477404 6.64359688,8.42055125 L2.1566304,6.27648081 C2.02220759,6.21225801 1.80227725,6.21225801 1.66790826,6.27648081 L0.100790197,7.02528176 C-0.033578795,7.08950455 -0.033578795,7.19462683 0.100790197,7.25884962 L6.64359688,10.3852889 C6.77796588,10.4495117 6.99795003,10.4495117 7.13231903,10.3852889 L13.6751257,7.25884962 C13.8094947,7.19462683 13.8094947,7.08950455 13.6751257,7.02528176" id="Fill-2"></path>
                    <path d="M0.100790197,3.40816027 L6.64359688,6.53465532 C6.77796588,6.59887812 6.99795003,6.59887812 7.13231903,6.53465532 L13.6751257,3.40816027 C13.8094947,3.34393748 13.8094947,3.23887099 13.6751257,3.1746482 L7.13231903,0.048153146 C6.99795003,-0.0160696478 6.77796588,-0.0160696478 6.64359688,0.048153146 L0.100790197,3.1746482 C-0.033578795,3.23887099 -0.033578795,3.34393748 0.100790197,3.40816027" id="Fill-3"></path>
                </g>
            </g>
        </g>
    </g>
</svg>