<?xml version="1.0" encoding="utf-8"?>
<!-- Generator: Adobe Illustrator 16.2.0, SVG Export Plug-In . SVG Version: 6.00 Build 0)  -->
<!DOCTYPE svg PUBLIC "-//W3C//DTD SVG 1.1//EN" "http://www.w3.org/Graphics/SVG/1.1/DTD/svg11.dtd">
<svg version="1.1" id="Layer_1" xmlns="http://www.w3.org/2000/svg" xmlns:xlink="http://www.w3.org/1999/xlink" x="0px" y="0px"
	 width="108px" height="17px" viewBox="0 0 108 17" enable-background="new 0 0 108 17" xml:space="preserve">
<path fill="#717172" d="M54.281,5.773c0.066-1.269,0.521-2.306,1.232-3.115V1.58h-0.945c-1.91,0-3.527,0.732-4.467,2.386h-0.055
	V1.762h-4.899v13.441h4.9V9.777c0-2.303,0.674-4.059,3.393-4.059C53.736,5.72,54.013,5.737,54.281,5.773z"/>
<path fill="#717172" d="M91.38,5.724c0.407-1.188,1.067-2.246,1.925-3.095v-1.05h-0.943c-1.911,0-3.526,0.732-4.471,2.385h-0.053
	V1.762h-4.902v13.441h4.902V9.777c0-2.303,0.676-4.059,3.395-4.059L91.38,5.724z"/>
<path fill="#717172" d="M64.232,5.22c-0.756-0.393-1.808-0.655-2.645-0.655c-0.562,0-1.533,0.234-1.533,0.917
	c0,0.918,1.533,1.048,2.211,1.182c2.284,0.444,4.012,1.493,4.012,3.979c0,3.536-3.313,5.008-6.52,5.008
	c-1.967,0-3.902-0.551-5.574-1.547l1.777-3.33c0.995,0.684,2.665,1.363,3.877,1.363c0.62,0,1.535-0.287,1.535-1.021
	c0-1.048-1.535-1.103-3.072-1.495c-1.533-0.393-3.066-1.125-3.066-3.536c0-3.302,3.066-4.767,6.088-4.767
	c1.562,0,3.125,0.235,4.549,0.864L64.232,5.22z"/>
<path fill="#717172" d="M108,15.203h-4.9v-1.495h-0.054c-0.862,1.336-2.562,1.938-4.175,1.938c-4.096,0-6.975-3.328-6.975-7.18
	c0-3.848,2.828-7.151,6.92-7.151c1.588,0,3.26,0.576,4.283,1.754V1.762h4.899L108,15.203L108,15.203z M96.959,8.495
	c0,1.702,1.16,3.012,3.15,3.012c1.992,0,3.147-1.308,3.147-3.012c0-1.651-1.155-3.039-3.147-3.039
	C98.119,5.457,96.959,6.844,96.959,8.495z"/>
<path fill="#717172" d="M82.163,9.283H71.846c0,1.937,1.053,2.984,3.072,2.984c1.05,0,1.803-0.339,2.343-1.231h4.714
	c-0.781,3.171-3.879,4.612-7.029,4.612c-4.575,0-7.995-2.517-7.995-7.152c0-4.48,3.147-7.178,7.644-7.178
	c4.793,0,7.57,2.883,7.57,7.466L82.163,9.283L82.163,9.283z M77.611,6.53c-0.243-1.284-1.455-2.122-2.773-2.122
	c-1.429,0-2.609,0.731-2.91,2.122H77.611z"/>
<g>
	<g>
		<path fill="#717172" d="M29.561,8.261c-0.005-0.116-0.013-0.229-0.022-0.344c0,0,0-0.001,0-0.002c0,0,0-0.001,0-0.002
			c-0.11-1.247-0.522-2.414-1.221-3.468c-0.312-0.47-0.669-0.897-1.068-1.28c-0.583-0.561-1.258-1.025-2.019-1.392
			c-1.145-0.547-2.41-0.823-3.76-0.823c-0.132,0-0.27,0.002-0.409,0.007C20.114,1,19.197,1.18,18.335,1.497
			c-0.869,0.314-1.626,0.729-2.245,1.227c-0.126,0.1-0.263,0.223-0.41,0.358l-0.106,0.104L15.429,3.34h0.001h0.001l-0.068,0.067
			L15.33,3.443l-0.173,0.182c-0.128,0.144-0.25,0.288-0.364,0.429l-0.001-0.002l-0.004-0.004c-0.237,0.288-0.456,0.586-0.617,0.854
			c-0.109,0.172-0.216,0.349-0.318,0.526L12.44,8.285l0.002,0.002l-0.074,0.145l-0.156,0.316c-0.31,0.627-0.642,1.252-1.013,1.768
			c-0.827,0.907-1.762,1.351-2.964,1.351c-0.084,0-0.17-0.004-0.258-0.009c-0.724-0.029-1.345-0.2-1.896-0.526
			c-0.059-0.035-0.116-0.071-0.171-0.108c-0.45-0.299-0.795-0.683-1.053-1.162c-0.291-0.543-0.42-1.098-0.402-1.686
			C4.456,8.36,4.457,8.346,4.457,8.333C4.496,7.397,4.853,6.669,5.572,6.04C5.747,5.889,5.93,5.761,6.121,5.647
			c0.027-0.016,0.054-0.031,0.081-0.045c0.534-0.291,1.142-0.436,1.839-0.436l0.217,0.006C9.365,5.214,10.219,5.56,10.9,6.235
			L13.036,2.4c-0.511-0.342-1.088-0.636-1.724-0.875c-0.024-0.009-0.049-0.019-0.074-0.027c-0.076-0.027-0.151-0.055-0.229-0.08
			C10.333,1.192,9.624,1.053,8.894,0.99l0,0C8.876,0.987,8.856,0.985,8.838,0.983C8.726,0.976,8.612,0.962,8.5,0.957
			C8.378,0.952,8.255,0.95,8.135,0.949H8.066c-1.343,0.005-2.591,0.28-3.732,0.825C3.056,2.39,2.02,3.287,1.252,4.443
			C0.486,5.599,0.068,6.882,0.008,8.259C0.003,8.377,0,8.494,0,8.609c-0.001,1.926,0.701,3.62,2.097,5.042
			c1.457,1.492,3.352,2.296,5.627,2.391c0.146,0.006,0.29,0.01,0.434,0.01c1.287,0,2.478-0.229,3.546-0.687
			c0.267-0.114,0.526-0.248,0.791-0.397c0.144-0.083,0.28-0.171,0.415-0.265l0.1-0.067l0.168-0.115
			c0.202-0.145,0.391-0.302,0.575-0.469l0.064-0.061c0.108-0.103,0.216-0.207,0.318-0.314l0.383-0.433l0.146-0.183l0.068-0.1
			l0.068-0.098c0.569-0.956,2.421-4.435,2.421-4.435V8.421l0.11-0.212l0.092-0.166c0.273-0.497,0.47-0.85,0.731-1.221l0.007-0.011
			c0.609-0.883,1.656-1.512,2.89-1.618c2.07-0.178,3.884,1.182,4.051,3.038c0.166,1.856-1.378,3.505-3.448,3.684
			c-0.431,0.037-0.85,0.008-1.245-0.079l-0.01,0.004c-1.519-0.316-2.486-1.424-2.963-1.919l-1.992,3.663
			c0,0,0.619,0.624,1.043,0.936c0.425,0.311,0.974,0.617,1.412,0.807c1.063,0.454,2.219,0.726,3.496,0.726
			c0.148,0,0.118,0,0.272-0.006c2.273-0.095,4.299-0.966,5.76-2.458c1.384-1.417,2.135-3.035,2.142-4.95V8.582
			C29.568,8.476,29.565,8.369,29.561,8.261z"/>
	</g>
</g>
<g>
	<path fill="#717172" d="M37.181,15.657c-1.033,0-1.97-0.12-2.811-0.36c-0.841-0.24-1.559-0.619-2.154-1.139
		c-0.597-0.52-1.057-1.182-1.381-1.985s-0.486-1.771-0.486-2.899V1.759h4.727v7.455c0,0.845,0.202,1.457,0.605,1.839
		c0.404,0.383,0.917,0.574,1.539,0.574c0.636,0,1.152-0.178,1.55-0.535c0.396-0.357,0.596-0.949,0.596-1.781V1.759h4.727v7.416
		c0,1.168-0.166,2.161-0.497,2.978c-0.331,0.818-0.798,1.486-1.399,2.006c-0.604,0.52-1.331,0.898-2.186,1.139
		C39.156,15.537,38.213,15.657,37.181,15.657z"/>
</g>
</svg>
