<?xml version="1.0" encoding="UTF-8" standalone="no"?>
<!-- Created with Inkscape (http://www.inkscape.org/) -->

<svg
   xmlns:dc="http://purl.org/dc/elements/1.1/"
   xmlns:cc="http://creativecommons.org/ns#"
   xmlns:rdf="http://www.w3.org/1999/02/22-rdf-syntax-ns#"
   xmlns:svg="http://www.w3.org/2000/svg"
   xmlns="http://www.w3.org/2000/svg"
   xmlns:sodipodi="http://sodipodi.sourceforge.net/DTD/sodipodi-0.dtd"
   xmlns:inkscape="http://www.inkscape.org/namespaces/inkscape"
   width="400"
   height="198.33157"
   id="svg3506"
   version="1.1"
   inkscape:version="0.48.2 r9819"
   sodipodi:docname="New document 4">
  <defs
     id="defs3508" />
  <sodipodi:namedview
     id="base"
     pagecolor="#ffffff"
     bordercolor="#666666"
     borderopacity="1.0"
     inkscape:pageopacity="0.0"
     inkscape:pageshadow="2"
     inkscape:zoom="2.8"
     inkscape:cx="263.76159"
     inkscape:cy="96.023973"
     inkscape:document-units="px"
     inkscape:current-layer="layer1"
     showgrid="false"
     fit-margin-left="0.5"
     fit-margin-bottom="0.5"
     fit-margin-top="0.5"
     fit-margin-right="0.5"
     inkscape:window-width="1920"
     inkscape:window-height="1028"
     inkscape:window-x="-8"
     inkscape:window-y="-8"
     inkscape:window-maximized="1" />
  <metadata
     id="metadata3511">
    <rdf:RDF>
      <cc:Work
         rdf:about="">
        <dc:format>image/svg+xml</dc:format>
        <dc:type
           rdf:resource="http://purl.org/dc/dcmitype/StillImage" />
        <dc:title></dc:title>
      </cc:Work>
    </rdf:RDF>
  </metadata>
  <g
     inkscape:label="Layer 1"
     inkscape:groupmode="layer"
     id="layer1"
     transform="translate(16.698139,-418.17828)">
    <g
       transform="matrix(8.1805645,0,0,-8.1805645,274.62911,551.26069)"
       id="g3189">
      <path
         id="path3191"
         style="fill:#2a3e92;fill-opacity:1;fill-rule:evenodd;stroke:none"
         d="m 0,0 c -1.621,-4.594 -6.057,-7.915 -11.251,-7.915 -5.222,0 -9.652,3.286 -11.248,7.933 l 0.606,0.209 0.611,0.207 c 1.461,-4.105 5.393,-6.995 10.028,-6.995 4.62,0 8.571,2.935 10.044,7.012 L 0,0 z m -22.499,8.147 c 1.62,4.679 6.056,8.06 11.25,8.06 5.225,0 9.653,-3.348 11.249,-8.08 L -0.606,7.914 -1.217,7.704 c -1.462,4.182 -5.394,7.125 -10.028,7.125 -4.622,0 -8.573,-2.99 -10.044,-7.142 l -1.21,0.46 z m 14.204,-2.981 -0.04,1.527 m 0.079,-1.527 c 0.614,0 1.115,-0.501 1.115,-1.115 0,-0.616 -0.501,-1.117 -1.115,-1.117 -0.616,0 -1.118,0.501 -1.118,1.117 0,0.614 0.502,1.115 1.118,1.115 m 6.482,0.004 -0.017,1.523 m 0.05,-1.527 c 0.615,0 1.116,-0.501 1.116,-1.115 0,-0.616 -0.501,-1.117 -1.116,-1.117 -0.617,0 -1.117,0.501 -1.117,1.117 0,0.614 0.5,1.115 1.117,1.115 M 13.08,3.353 13.158,3.423 13.223,1.94 C 13.239,1.584 11.881,1.055 11.126,1.605 10.37,2.154 10.353,2.79 10.353,3.626 l -3.553,0 C 7.182,2.617 8.394,2.725 8.732,3.233 L 10.206,2.994 C 9.661,1.289 8.204,1.068 6.806,1.522 6.099,1.868 5.673,2.287 5.354,3.012 l 0,-1.695 -1.732,0 C 3.622,2.358 3.624,3.54 3.61,4.599 3.554,5.289 2.448,5.232 2.448,4.558 l 0,-3.241 -1.715,-0.025 -0.499,0 -0.68,0 -0.001,1.026 C -0.448,2.726 -0.913,1.256 -1.469,1.292 -2.671,1.204 -3.641,1.825 -4.148,2.903 l 0,-1.586 -1.764,0 0,1.586 C -6.424,1.874 -7.767,1.21 -9.083,1.543 l -0.195,0.082 c 0,0 0.055,-1.827 0.055,-2.299 l -1.76,0 0,4.672 c 0.044,2.204 2.423,3.512 4.231,2.199 0.382,-0.312 0.62,-0.626 0.84,-1.066 l 0,3.682 1.764,0 0,-3.682 c 0.572,1.175 1.678,1.742 2.978,1.526 0.964,-0.266 1.526,-0.74 1.914,-1.64 0.49,1.436 1.85,2.023 3.262,1.527 0.712,-0.335 1.095,-0.789 1.348,-1.527 0.644,1.408 2.039,2.017 3.5,1.5 0.729,-0.336 1.193,-0.762 1.499,-1.5 l 0,2.739 1.705,0 0,-1.076 1.079,0 0,-1.578 -1.079,0 c 0,-0.534 -0.086,-1.073 0.08,-1.575 0.163,-0.35 0.628,-0.429 0.942,-0.174 M 7.751,6.686 7.814,5.184 m -1.026,-0.79 2.137,0 c -0.337,1.093 -1.846,1.048 -2.137,0 m -38.254,0.796 0.018,1.503 m 0.049,-1.496 c 0.616,0 1.117,-0.502 1.117,-1.117 0,-0.616 -0.501,-1.117 -1.117,-1.117 -0.615,0 -1.114,0.501 -1.114,1.117 0,0.615 0.499,1.117 1.114,1.117 m 18.213,-4.22 0,5.732 -1.733,0 0,-3.278 c 0,-0.593 -0.868,-0.598 -0.868,0 l 0,3.278 -1.73,0 0,2.104 -1.763,0 0,-3.796 c -0.567,1.214 -1.638,1.839 -2.982,1.65 -0.965,-0.214 -1.651,-0.75 -2.022,-1.65 -0.334,1.068 -1.123,1.633 -2.222,1.692 -1.166,0 -2.034,-0.57 -2.384,-1.692 -0.588,1.294 -1.764,1.919 -3.165,1.602 -0.841,-0.263 -1.35,-0.708 -1.732,-1.488 l 0,3.682 -1.764,0 0,-7.496 1.764,0 0,1.682 c 0.501,-1.004 1.338,-1.558 2.459,-1.58 1.192,0.07 1.957,0.637 2.438,1.693 l 0,-1.795 1.698,0 0,3.235 c 0.066,0.705 1.139,0.727 1.204,0 l 0,-3.235 1.704,0 0,1.695 c 0.392,-0.869 1.008,-1.393 1.931,-1.629 2.022,-0.193 2.824,1.199 2.835,1.548 l -1.46,0.221 c -0.738,-0.559 -1.582,-0.269 -1.849,0.474 l 3.547,0 0,-2.309 1.763,0 0,1.186 c 0.292,-1.175 1.743,-1.575 2.567,-0.694 0,-0.259 -0.027,-0.563 -0.107,-0.811 -0.265,-0.635 -1.148,-0.635 -1.605,-0.21 l -1.04,-1.343 c 0.664,-0.523 1.334,-0.776 2.192,-0.695 0.706,0.071 1.155,0.195 1.694,0.68 0.409,0.457 0.604,0.933 0.63,1.547 m -7.511,3.329 c -0.349,1.122 -1.831,1.102 -2.168,0 l 2.168,0 z"
         inkscape:connector-curvature="0" />
    </g>
  </g>
</svg>
