<svg xmlns="http://www.w3.org/2000/svg" width="596" height="180"><rect id="backgroundrect" width="100%" height="100%" x="0" y="0" fill="none" stroke="none" class=""/><g class="currentLayer"><title>Layer 1</title><g class="" id="svg_5"><g fill="#2E3133" id="svg_1" class=""><path d="M360.4999953150749,154.73703964948652 v-13.1 h6.5 v13.1 h-6.5 zM426.9999953150749,109.63703964948655 c-0.2,-2.8 -1,-5.4 -2.2,-7.6 c-1.2,-2.2 -2.8,-4 -4.8,-5.5 s-4.2,-2.6 -6.9,-3.3 c-2.6,-0.7000000000000006 -5.4,-1.1 -8.3,-1.1 c-4,0 -7.7,0.9 -10.8,2.4 c-3.2,1.6 -5.8,3.8 -7.8,6.6 c-2.1,2.7 -3.7,5.9 -4.8,9.4 s-1.6,7.1 -1.6,10.9 c0,4.4 0.5,8.4 1.5,12.1 c1,3.7 2.6,7 4.7,9.7 c2.1,2.7 4.8,4.9 7.8,6.4 c3.2,1.5 6.9,2.3 11,2.3 c3.1,0 5.9,-0.5 8.4,-1.5 c2.6,-1 4.9,-2.4 6.9,-4.2 c2,-1.8 3.7,-3.9 4.9,-6.4 s2.1,-5.3 2.6,-8.2 h4.8 c-0.5,3.9 -1.6,7.3 -3.2,10.4 c-1.6,3.1 -3.7,5.6 -6.1,7.7 c-2.4,2.1 -5.1,3.7 -8.2,4.8 s-6.4,1.6 -9.9,1.6 c-5.4,0 -9.9,-1 -13.7,-2.8 c-3.8,-2 -6.9,-4.4 -9.3,-7.7 c-2.4,-3.2 -4.2,-6.9 -5.4,-11.1 c-1.1,-4.2 -1.7000000000000002,-8.6 -1.7000000000000002,-13.1 s0.6000000000000006,-8.9 2,-13 c1.3,-4 3.2,-7.6 5.8,-10.6 s5.6,-5.5 9.4,-7.2 c3.7,-1.8 8,-2.7 12.9,-2.7 c3.5,0 6.9,0.5 9.9,1.3 c3.1,0.9 5.9,2.2 8.2,4 c2.4,1.8 4.4,4 5.9,6.7 s2.4,5.9 2.8,9.7 h-4.7 zM439.4999953150749,122.1370396494865 c0,-4.7 0.6000000000000006,-9.1 2,-13.1 c1.3,-4 3.2,-7.7 5.8,-10.9 c2.6,-3.2 5.6,-5.6 9.4,-7.5 c3.7,-1.8 8,-2.7 12.9,-2.7 c4.8,0 9.1,0.9 12.9,2.7 c3.7,1.8 6.9,4.3 9.4,7.5 c2.6,3.2 4.4,6.7 5.8,10.9 c1.3,4.2 2,8.4 2,13.1 c0,4.7 -0.6000000000000006,9.1 -2,13.2 c-1.3,4.2 -3.2,7.7 -5.8,10.9 c-2.6,3.1 -5.6,5.5 -9.4,7.3 c-3.7,1.8 -8,2.7 -12.9,2.7 c-4.8,0 -9.1,-0.9 -12.9,-2.7 c-3.7,-1.8 -6.9,-4.3 -9.4,-7.3 s-4.5,-6.7 -5.8,-10.9 c-1.4,-4.1 -2,-8.6 -2,-13.2 zm4.7,0 c0,3.9 0.5,7.6 1.6,11.3 c1.1,3.5 2.7,6.7 4.8,9.5 c2.1,2.8 4.8,5 7.8,6.6 c3.2,1.6 6.7,2.4 10.8,2.4 s7.7,-0.9 10.8,-2.4 c3.2,-1.6 5.8,-3.9 7.8,-6.6 c2.1,-2.8 3.7,-6 4.8,-9.5 s1.6,-7.3 1.6,-11.3 s-0.6000000000000006,-7.6 -1.6,-11.3 c-1.1,-3.5 -2.7,-6.7 -4.8,-9.5 c-2.1,-2.8 -4.8,-5 -7.8,-6.6 c-3.2,-1.6 -6.7,-2.4 -10.8,-2.4 s-7.7,0.9 -10.8,2.4 c-3.2,1.6 -5.8,3.9 -7.8,6.6 c-2.1,2.8 -3.7,6 -4.8,9.5 c-1,3.7 -1.6,7.4 -1.6,11.3 zM509.5999953150749,89.53703964948653 h4.8 v13.3 h0.2 c0.5,-2.1 1.3,-3.9 2.7,-5.8 c1.2,-1.8 2.8,-3.4 4.7,-4.8 c1.8,-1.3 3.8,-2.4 6.1,-3.2 c2.2,-0.7000000000000006 4.7,-1.1 7.1,-1.1 c3.2,0 5.9,0.4 8.1,1.2 c2.3,0.9 4.3,1.8 5.9,3.2 s2.9,2.8 3.8,4.4 c1,1.6 1.6,3.3 2,5 h0.2 c2,-4.5 4.5,-8 7.8,-10.3 c3.3,-2.3 7.6,-3.5 12.9,-3.5 c2.9,0 5.8,0.5 8.2,1.3 c2.4,0.9 4.7,2.2 6.5,4 s3.2,4.2 4.3,6.9 c1,2.8 1.5,6.1 1.5,9.9 v44.4 h-4.9 v-44.7 c0,-4.2 -0.6000000000000006,-7.3 -2,-9.8 c-1.2,-2.3 -2.8,-4.2 -4.5,-5.4 c-1.7000000000000002,-1.2 -3.4,-2 -5.3,-2.3 c-1.7000000000000002,-0.2 -3.1,-0.5 -4,-0.5 c-2.9,0 -5.8,0.5 -8.2,1.5 c-2.4,1 -4.7,2.6 -6.5,4.5 c-1.8,2.1 -3.2,4.5 -4.3,7.6 c-1,3.1 -1.5,6.5 -1.5,10.3 v38.8 h-4.8 v-44.7 c0,-4 -0.6000000000000006,-7.3 -1.8,-9.7 c-1.2,-2.4 -2.7,-4.2 -4.3,-5.4 s-3.3,-2 -5.1,-2.3 c-1.7000000000000002,-0.4 -3.1,-0.5 -4.2,-0.5 c-2.3,0 -4.7,0.5 -7.1,1.3 c-2.4,1 -4.7,2.3 -6.7,4.3 s-3.7,4.4 -4.9,7.5 s-2,6.6 -2,10.8 v38.7 h-4.8 V89.33703964948654 h0.1 z" id="svg_2"/></g><g class="" id="svg_6"><path fill="#FFCB29" d="M199.6999953150749,22.33703964948654 c-7,3.7 -9.5,9.8 -9.5,26.7 c0,0 3.5,-3.4 8.7,-5.3 c3.8,-1.3 7,-3.4 8.9,-4.8 c5.9,-4.3 6.7,-9.8 6.7,-19.1 c0,0 -9.6,-0.3000000000000003 -14.8,2.5 z" id="svg_3" class=""/><path fill="#2E3133" d="M158.6999953150749,26.33703964948654 c-5.6,5 -7.3,12.9 -7.3,12.9 L132.59999531507492,111.43703964948656 l-15.5,-59.2 c-1.5,-6.2 -4.3,-14.1 -8.6,-19.3 c-5.4,-6.6 -16.5,-7 -17.7,-7 s-12.4,0.4 -17.9,7.1 c-4.3,5.3 -7.1,13.1 -8.6,19.3 l-15.5,59.2 l-18.6,-72.3 s-1.6,-8 -7.3,-12.9 c-9.2,-8.1 -22.9,-6.4 -22.9,-6.4 L35.699995315074915,155.33703964948654 s11.8,0.9 17.7,-2.2 c7.7,-3.9 11.5,-7 16.2,-25.5 c4.2,-16.4 15.9,-64.6 17,-68.1 c0.5,-1.7000000000000002 1.2,-5.8 4.2,-5.8 c3.1,0 3.7,4 4.2,5.8 c1.1,3.4 12.7,51.7 17,68.1 c4.7,18.4 8.4,21.4 16.2,25.5 c5.9,3.1 17.7,2.2 17.7,2.2 L181.59999531507492,20.03703964948653 s-13.7,-1.7000000000000002 -22.9,6.3 zM214.4999953150749,42.03703964948653 s-2.2,3.4 -7.3,6.4 c-3.3,1.8 -6.4,3.1 -9.8,4.7 c-5.6,2.7 -7.2,5.8 -7.2,10.4 V155.33703964948654 s9.1,1.1 14.9,-1.8 c7.6,-3.9 9.3,-7.6 9.4,-24.5 v-87 zM303.69999531507494,87.93703964948656 l45.3,-67.6 s-19.1,-3.3 -28.6,5.4 c-6.1,5.5 -12.9,15.4 -12.9,15.4 L290.89999531507493,65.33703964948654 c-0.9,1.2 -1.8,2.6 -3.5,2.6 s-2.8,-1.3 -3.5,-2.6 l-16.8,-24.1 s-6.7,-9.9 -12.9,-15.4 c-9.4,-8.7 -28.6,-5.4 -28.6,-5.4 l45.4,67.4 l-45.4,67.3 s20,2.6 29.4,-6.1 c6.1,-5.5 12,-14.6 12,-14.6 L283.5999953150749,110.33703964948654 c0.9,-1.2 1.8,-2.6 3.5,-2.6 s2.8,1.3 3.5,2.6 l16.6,24.1 s6.2,8.9 12.2,14.6 c9.4,8.7 29.1,6.1 29.1,6.1 l-44.8,-67.2 z" id="svg_4" class=""/></g></g></g></svg>